<mxfile host="app.diagrams.net" modified="2023-12-28T17:30:23.298Z" agent="Mozilla/5.0 (X11; Linux x86_64) AppleWebKit/537.36 (KHTML, like Gecko) Chrome/120.0.0.0 Safari/537.36" etag="weYMx8vFDL6Q1d_eL8N8" version="22.1.15" type="device">
  <diagram name="Page-1" id="k1Dc9fYvaTC77PAUhVud">
    <mxGraphModel dx="1793" dy="983" grid="1" gridSize="10" guides="1" tooltips="1" connect="1" arrows="1" fold="1" page="1" pageScale="1" pageWidth="850" pageHeight="1100" math="0" shadow="0">
      <root>
        <mxCell id="0" />
        <mxCell id="1" parent="0" />
        <mxCell id="JRrbheT3QAUAnlSYt-7b-122" value="" style="rounded=0;whiteSpace=wrap;html=1;dashed=1;" vertex="1" parent="1">
          <mxGeometry x="12.5" y="1030" width="807.5" height="490" as="geometry" />
        </mxCell>
        <mxCell id="JRrbheT3QAUAnlSYt-7b-147" value="" style="rounded=0;whiteSpace=wrap;html=1;dashed=1;dashPattern=1 1;" vertex="1" parent="1">
          <mxGeometry x="468.5" y="1280" width="335.71" height="230" as="geometry" />
        </mxCell>
        <mxCell id="JRrbheT3QAUAnlSYt-7b-157" value="" style="rounded=0;whiteSpace=wrap;html=1;dashed=1;dashPattern=1 1;" vertex="1" parent="1">
          <mxGeometry x="473.36" y="1320" width="326.64" height="90" as="geometry" />
        </mxCell>
        <mxCell id="JRrbheT3QAUAnlSYt-7b-139" value="" style="rounded=0;whiteSpace=wrap;html=1;dashed=1;dashPattern=1 1;" vertex="1" parent="1">
          <mxGeometry x="25.65" y="1223" width="335.71" height="90" as="geometry" />
        </mxCell>
        <mxCell id="JRrbheT3QAUAnlSYt-7b-128" value="" style="rounded=0;whiteSpace=wrap;html=1;dashed=1;dashPattern=1 1;" vertex="1" parent="1">
          <mxGeometry x="25.65" y="1320" width="334.35" height="90" as="geometry" />
        </mxCell>
        <mxCell id="JRrbheT3QAUAnlSYt-7b-125" value="&lt;font style=&quot;font-size: 23px;&quot;&gt;&lt;b&gt;Gateway&lt;/b&gt;&lt;/font&gt;" style="outlineConnect=0;dashed=0;verticalLabelPosition=bottom;verticalAlign=top;align=center;html=1;shape=mxgraph.aws3.internet_gateway;fillColor=#F58534;gradientColor=none;" vertex="1" parent="1">
          <mxGeometry x="394.5" y="520" width="69" height="72" as="geometry" />
        </mxCell>
        <mxCell id="JRrbheT3QAUAnlSYt-7b-17" value="" style="triangle;whiteSpace=wrap;html=1;rotation=90;strokeWidth=0;fillColor=#D4E1F5;" vertex="1" parent="1">
          <mxGeometry x="163.5" y="255" width="60" height="280" as="geometry" />
        </mxCell>
        <mxCell id="JRrbheT3QAUAnlSYt-7b-6" value="&lt;font face=&quot;Comic Sans MS&quot;&gt;&lt;b&gt;Debian&lt;br&gt;12.4.0&lt;/b&gt;&lt;/font&gt;" style="rounded=0;whiteSpace=wrap;html=1;fillColor=#5844ee;fontColor=#FFFFFF;strokeWidth=0;" vertex="1" parent="1">
          <mxGeometry x="48.5" y="250" width="50" height="50" as="geometry" />
        </mxCell>
        <mxCell id="JRrbheT3QAUAnlSYt-7b-7" value="&lt;font size=&quot;1&quot; face=&quot;Comic Sans MS&quot; style=&quot;&quot;&gt;&lt;b style=&quot;font-size: 15px;&quot;&gt;VirtualBox&lt;/b&gt;&lt;/font&gt;" style="rounded=0;whiteSpace=wrap;html=1;strokeWidth=0;strokeColor=#FF8000;fillColor=#FF8000;fontColor=#FFFFFF;" vertex="1" parent="1">
          <mxGeometry x="48.5" y="310" width="290" height="50" as="geometry" />
        </mxCell>
        <mxCell id="JRrbheT3QAUAnlSYt-7b-11" value="&lt;b&gt;&lt;font face=&quot;Comic Sans MS&quot;&gt;Debian&lt;br&gt;12.4.0&lt;/font&gt;&lt;/b&gt;" style="rounded=0;whiteSpace=wrap;html=1;fillColor=#5844ee;fontColor=#FFFFFF;strokeWidth=0;" vertex="1" parent="1">
          <mxGeometry x="168.5" y="250" width="50" height="50" as="geometry" />
        </mxCell>
        <mxCell id="JRrbheT3QAUAnlSYt-7b-13" value="&lt;font face=&quot;Comic Sans MS&quot;&gt;&lt;b&gt;Alpine&lt;br&gt;3.18.4&lt;/b&gt;&lt;/font&gt;" style="rounded=0;whiteSpace=wrap;html=1;fillColor=#5844ee;fontColor=#FFFFFF;strokeWidth=0;" vertex="1" parent="1">
          <mxGeometry x="288.5" y="250" width="50" height="50" as="geometry" />
        </mxCell>
        <mxCell id="JRrbheT3QAUAnlSYt-7b-15" value="&lt;b&gt;&lt;font face=&quot;Comic Sans MS&quot;&gt;Debian&lt;br&gt;12.4.0&lt;/font&gt;&lt;/b&gt;" style="rounded=0;whiteSpace=wrap;html=1;fillColor=#5844ee;fontColor=#FFFFFF;strokeWidth=0;" vertex="1" parent="1">
          <mxGeometry x="228.5" y="250" width="50" height="50" as="geometry" />
        </mxCell>
        <mxCell id="JRrbheT3QAUAnlSYt-7b-16" value="" style="pointerEvents=1;shadow=0;dashed=0;html=1;strokeColor=none;fillColor=#4495D1;labelPosition=center;verticalLabelPosition=bottom;verticalAlign=top;align=center;outlineConnect=0;shape=mxgraph.veeam.server;" vertex="1" parent="1">
          <mxGeometry x="131" y="420" width="125" height="40" as="geometry" />
        </mxCell>
        <mxCell id="JRrbheT3QAUAnlSYt-7b-18" value="&lt;font face=&quot;Comic Sans MS&quot;&gt;&lt;b&gt;Debian&lt;br&gt;12.4.0&lt;/b&gt;&lt;/font&gt;" style="rounded=0;whiteSpace=wrap;html=1;fillColor=#5844ee;fontColor=#FFFFFF;strokeWidth=0;" vertex="1" parent="1">
          <mxGeometry x="33.5" y="630" width="50" height="50" as="geometry" />
        </mxCell>
        <mxCell id="JRrbheT3QAUAnlSYt-7b-19" value="&lt;b&gt;Debian&lt;br&gt;12.4.0&lt;/b&gt;" style="rounded=0;whiteSpace=wrap;html=1;fillColor=#5844ee;fontColor=#FFFFFF;strokeWidth=0;" vertex="1" parent="1">
          <mxGeometry x="33.5" y="690" width="50" height="50" as="geometry" />
        </mxCell>
        <mxCell id="JRrbheT3QAUAnlSYt-7b-20" value="&lt;b&gt;&lt;font face=&quot;Comic Sans MS&quot;&gt;Debian&lt;br&gt;12.4.0&lt;/font&gt;&lt;/b&gt;" style="rounded=0;whiteSpace=wrap;html=1;fillColor=#5844ee;fontColor=#FFFFFF;strokeWidth=0;" vertex="1" parent="1">
          <mxGeometry x="33.5" y="750" width="50" height="50" as="geometry" />
        </mxCell>
        <mxCell id="JRrbheT3QAUAnlSYt-7b-21" value="&lt;font face=&quot;Comic Sans MS&quot;&gt;&lt;b&gt;Alpine&lt;br&gt;3.18.4&lt;/b&gt;&lt;/font&gt;" style="rounded=0;whiteSpace=wrap;html=1;fillColor=#5844ee;fontColor=#FFFFFF;strokeWidth=0;" vertex="1" parent="1">
          <mxGeometry x="468.5" y="726.5" width="50" height="50" as="geometry" />
        </mxCell>
        <mxCell id="JRrbheT3QAUAnlSYt-7b-22" value="&lt;b&gt;&lt;font face=&quot;Comic Sans MS&quot;&gt;Debian&lt;br&gt;12.4.0&lt;/font&gt;&lt;/b&gt;" style="rounded=0;whiteSpace=wrap;html=1;fillColor=#5844ee;fontColor=#FFFFFF;strokeWidth=0;" vertex="1" parent="1">
          <mxGeometry x="33.5" y="810" width="50" height="50" as="geometry" />
        </mxCell>
        <mxCell id="JRrbheT3QAUAnlSYt-7b-23" value="" style="image;aspect=fixed;perimeter=ellipsePerimeter;html=1;align=center;shadow=0;dashed=0;spacingTop=3;image=img/lib/active_directory/internet_cloud.svg;" vertex="1" parent="1">
          <mxGeometry x="743.5" y="720" width="100" height="63" as="geometry" />
        </mxCell>
        <mxCell id="JRrbheT3QAUAnlSYt-7b-24" value="kmaster-1.fks.lab&lt;br&gt;192.168.56.151/24" style="text;html=1;strokeColor=default;fillColor=none;align=left;verticalAlign=middle;whiteSpace=wrap;rounded=0;" vertex="1" parent="1">
          <mxGeometry x="93.5" y="640" width="110" height="30" as="geometry" />
        </mxCell>
        <mxCell id="JRrbheT3QAUAnlSYt-7b-25" value="firewall-nfs-1.fks.lab" style="text;html=1;strokeColor=default;fillColor=none;align=center;verticalAlign=middle;whiteSpace=wrap;rounded=0;" vertex="1" parent="1">
          <mxGeometry x="438.5" y="690" width="110" height="30" as="geometry" />
        </mxCell>
        <mxCell id="JRrbheT3QAUAnlSYt-7b-26" value="&lt;font size=&quot;1&quot; style=&quot;&quot;&gt;&lt;b style=&quot;font-size: 23px;&quot;&gt;Virtual Environment&lt;/b&gt;&lt;/font&gt;" style="image;sketch=0;aspect=fixed;html=1;points=[];align=center;fontSize=12;image=img/lib/mscae/VM_Scale_Set.svg;" vertex="1" parent="1">
          <mxGeometry x="390" y="20" width="70" height="70" as="geometry" />
        </mxCell>
        <mxCell id="JRrbheT3QAUAnlSYt-7b-29" value="kworker-1.fks.lab&lt;br&gt;192.168.56.161/24" style="text;html=1;strokeColor=default;fillColor=none;align=left;verticalAlign=middle;whiteSpace=wrap;rounded=0;" vertex="1" parent="1">
          <mxGeometry x="93.5" y="700" width="110" height="30" as="geometry" />
        </mxCell>
        <mxCell id="JRrbheT3QAUAnlSYt-7b-30" value="kworker-2.fks.lab&lt;br&gt;192.168.56.162/24" style="text;html=1;strokeColor=default;fillColor=none;align=left;verticalAlign=middle;whiteSpace=wrap;rounded=0;" vertex="1" parent="1">
          <mxGeometry x="93.5" y="756.5" width="110" height="30" as="geometry" />
        </mxCell>
        <mxCell id="JRrbheT3QAUAnlSYt-7b-31" value="kworker-3.fks.lab&lt;br&gt;192.168.56.163/24" style="text;html=1;strokeColor=default;fillColor=none;align=left;verticalAlign=middle;whiteSpace=wrap;rounded=0;" vertex="1" parent="1">
          <mxGeometry x="93.5" y="820" width="110" height="30" as="geometry" />
        </mxCell>
        <mxCell id="JRrbheT3QAUAnlSYt-7b-32" value="192.168.56.200/24" style="text;html=1;strokeColor=default;fillColor=none;align=left;verticalAlign=middle;whiteSpace=wrap;rounded=0;" vertex="1" parent="1">
          <mxGeometry x="353.5" y="736.5" width="110" height="30" as="geometry" />
        </mxCell>
        <mxCell id="JRrbheT3QAUAnlSYt-7b-34" value="WAN (DHCP)" style="text;html=1;strokeColor=default;fillColor=none;align=center;verticalAlign=middle;whiteSpace=wrap;rounded=0;" vertex="1" parent="1">
          <mxGeometry x="523.5" y="736.5" width="110" height="30" as="geometry" />
        </mxCell>
        <mxCell id="JRrbheT3QAUAnlSYt-7b-38" value="" style="endArrow=none;startArrow=none;html=1;rounded=0;exitX=1;exitY=0.5;exitDx=0;exitDy=0;entryX=0;entryY=0.5;entryDx=0;entryDy=0;startFill=0;endFill=0;" edge="1" parent="1" source="JRrbheT3QAUAnlSYt-7b-24" target="JRrbheT3QAUAnlSYt-7b-32">
          <mxGeometry width="50" height="50" relative="1" as="geometry">
            <mxPoint x="493.5" y="970" as="sourcePoint" />
            <mxPoint x="543.5" y="920" as="targetPoint" />
          </mxGeometry>
        </mxCell>
        <mxCell id="JRrbheT3QAUAnlSYt-7b-39" value="" style="endArrow=none;startArrow=none;html=1;rounded=0;exitX=1;exitY=0.5;exitDx=0;exitDy=0;startFill=0;endFill=0;entryX=0;entryY=0.5;entryDx=0;entryDy=0;" edge="1" parent="1" source="JRrbheT3QAUAnlSYt-7b-29" target="JRrbheT3QAUAnlSYt-7b-32">
          <mxGeometry width="50" height="50" relative="1" as="geometry">
            <mxPoint x="213.5" y="665" as="sourcePoint" />
            <mxPoint x="353.5" y="750" as="targetPoint" />
          </mxGeometry>
        </mxCell>
        <mxCell id="JRrbheT3QAUAnlSYt-7b-40" value="" style="endArrow=none;startArrow=none;html=1;rounded=0;exitX=1;exitY=0.5;exitDx=0;exitDy=0;startFill=0;endFill=0;entryX=0;entryY=0.5;entryDx=0;entryDy=0;" edge="1" parent="1" source="JRrbheT3QAUAnlSYt-7b-30" target="JRrbheT3QAUAnlSYt-7b-32">
          <mxGeometry width="50" height="50" relative="1" as="geometry">
            <mxPoint x="213.5" y="725" as="sourcePoint" />
            <mxPoint x="363.5" y="762" as="targetPoint" />
          </mxGeometry>
        </mxCell>
        <mxCell id="JRrbheT3QAUAnlSYt-7b-41" value="" style="endArrow=none;startArrow=none;html=1;rounded=0;exitX=1;exitY=0.5;exitDx=0;exitDy=0;startFill=0;endFill=0;entryX=0;entryY=0.5;entryDx=0;entryDy=0;" edge="1" parent="1" source="JRrbheT3QAUAnlSYt-7b-31" target="JRrbheT3QAUAnlSYt-7b-32">
          <mxGeometry width="50" height="50" relative="1" as="geometry">
            <mxPoint x="213.5" y="782" as="sourcePoint" />
            <mxPoint x="363.5" y="762" as="targetPoint" />
          </mxGeometry>
        </mxCell>
        <mxCell id="JRrbheT3QAUAnlSYt-7b-42" value="" style="endArrow=none;startArrow=none;html=1;rounded=0;exitX=1;exitY=0.5;exitDx=0;exitDy=0;startFill=0;endFill=0;entryX=0;entryY=0.5;entryDx=0;entryDy=0;" edge="1" parent="1" source="JRrbheT3QAUAnlSYt-7b-34" target="JRrbheT3QAUAnlSYt-7b-23">
          <mxGeometry width="50" height="50" relative="1" as="geometry">
            <mxPoint x="213.5" y="845" as="sourcePoint" />
            <mxPoint x="363.5" y="762" as="targetPoint" />
          </mxGeometry>
        </mxCell>
        <mxCell id="JRrbheT3QAUAnlSYt-7b-43" value="" style="endArrow=none;dashed=1;html=1;dashPattern=1 3;strokeWidth=2;rounded=0;" edge="1" parent="1">
          <mxGeometry width="50" height="50" relative="1" as="geometry">
            <mxPoint x="115" y="500" as="sourcePoint" />
            <mxPoint x="735" y="500" as="targetPoint" />
          </mxGeometry>
        </mxCell>
        <mxCell id="JRrbheT3QAUAnlSYt-7b-44" value="" style="endArrow=none;dashed=1;html=1;dashPattern=1 3;strokeWidth=2;rounded=0;" edge="1" parent="1">
          <mxGeometry width="50" height="50" relative="1" as="geometry">
            <mxPoint x="115" y="890" as="sourcePoint" />
            <mxPoint x="735" y="890" as="targetPoint" />
          </mxGeometry>
        </mxCell>
        <mxCell id="JRrbheT3QAUAnlSYt-7b-47" value="&lt;font style=&quot;font-size: 23px;&quot;&gt;&lt;b&gt;Cluster / Longhorn&lt;/b&gt;&lt;/font&gt;" style="image;sketch=0;aspect=fixed;html=1;points=[];align=center;fontSize=12;image=img/lib/mscae/Kubernetes.svg;" vertex="1" parent="1">
          <mxGeometry x="389" y="910" width="72.92" height="70" as="geometry" />
        </mxCell>
        <mxCell id="JRrbheT3QAUAnlSYt-7b-48" value="&lt;b&gt;&lt;font face=&quot;Comic Sans MS&quot;&gt;Debian&lt;br&gt;12.4.0&lt;/font&gt;&lt;/b&gt;" style="rounded=0;whiteSpace=wrap;html=1;fillColor=#5844ee;fontColor=#FFFFFF;strokeWidth=0;" vertex="1" parent="1">
          <mxGeometry x="108.5" y="250" width="50" height="50" as="geometry" />
        </mxCell>
        <mxCell id="JRrbheT3QAUAnlSYt-7b-60" value="CAPACITY" style="shape=table;startSize=30;container=1;collapsible=0;childLayout=tableLayout;fontSize=16;fontStyle=1;fillColor=#dae8fc;strokeColor=#6c8ebf;gradientColor=#7ea6e0;" vertex="1" parent="1">
          <mxGeometry x="378.5" y="190" width="420" height="200" as="geometry" />
        </mxCell>
        <mxCell id="JRrbheT3QAUAnlSYt-7b-61" value="" style="shape=tableRow;horizontal=0;startSize=0;swimlaneHead=0;swimlaneBody=0;strokeColor=inherit;top=0;left=0;bottom=0;right=0;collapsible=0;dropTarget=0;fillColor=none;points=[[0,0.5],[1,0.5]];portConstraint=eastwest;fontSize=16;" vertex="1" parent="JRrbheT3QAUAnlSYt-7b-60">
          <mxGeometry y="30" width="420" height="55" as="geometry" />
        </mxCell>
        <mxCell id="JRrbheT3QAUAnlSYt-7b-62" value="&lt;b&gt;1x KMASTER&lt;/b&gt;" style="shape=partialRectangle;html=1;whiteSpace=wrap;connectable=0;strokeColor=inherit;overflow=hidden;fillColor=none;top=0;left=0;bottom=0;right=0;pointerEvents=1;fontSize=16;" vertex="1" parent="JRrbheT3QAUAnlSYt-7b-61">
          <mxGeometry width="141" height="55" as="geometry">
            <mxRectangle width="141" height="55" as="alternateBounds" />
          </mxGeometry>
        </mxCell>
        <mxCell id="JRrbheT3QAUAnlSYt-7b-63" value="&lt;b&gt;3x KWORKER&lt;/b&gt;" style="shape=partialRectangle;html=1;whiteSpace=wrap;connectable=0;strokeColor=inherit;overflow=hidden;fillColor=none;top=0;left=0;bottom=0;right=0;pointerEvents=1;fontSize=16;" vertex="1" parent="JRrbheT3QAUAnlSYt-7b-61">
          <mxGeometry x="141" width="138" height="55" as="geometry">
            <mxRectangle width="138" height="55" as="alternateBounds" />
          </mxGeometry>
        </mxCell>
        <mxCell id="JRrbheT3QAUAnlSYt-7b-64" value="&lt;font style=&quot;font-size: 15px;&quot;&gt;&lt;b&gt;1x FIREWALL/NFS&lt;/b&gt;&lt;/font&gt;" style="shape=partialRectangle;html=1;whiteSpace=wrap;connectable=0;strokeColor=inherit;overflow=hidden;fillColor=none;top=0;left=0;bottom=0;right=0;pointerEvents=1;fontSize=16;" vertex="1" parent="JRrbheT3QAUAnlSYt-7b-61">
          <mxGeometry x="279" width="141" height="55" as="geometry">
            <mxRectangle width="141" height="55" as="alternateBounds" />
          </mxGeometry>
        </mxCell>
        <mxCell id="JRrbheT3QAUAnlSYt-7b-65" value="" style="shape=tableRow;horizontal=0;startSize=0;swimlaneHead=0;swimlaneBody=0;strokeColor=inherit;top=0;left=0;bottom=0;right=0;collapsible=0;dropTarget=0;fillColor=none;points=[[0,0.5],[1,0.5]];portConstraint=eastwest;fontSize=16;" vertex="1" parent="JRrbheT3QAUAnlSYt-7b-60">
          <mxGeometry y="85" width="420" height="115" as="geometry" />
        </mxCell>
        <mxCell id="JRrbheT3QAUAnlSYt-7b-66" value="&lt;div style=&quot;&quot;&gt;&lt;div style=&quot;border-color: var(--border-color); text-align: left;&quot;&gt;2vCPU&lt;/div&gt;&lt;div style=&quot;border-color: var(--border-color); text-align: left;&quot;&gt;4G MEM&lt;/div&gt;&lt;div style=&quot;border-color: var(--border-color); text-align: left;&quot;&gt;&lt;span style=&quot;border-color: var(--border-color); background-color: initial;&quot;&gt;8G DSK&lt;/span&gt;&lt;/div&gt;&lt;div style=&quot;border-color: var(--border-color); text-align: left;&quot;&gt;&lt;span style=&quot;border-color: var(--border-color); background-color: initial;&quot;&gt;1 NIC&lt;/span&gt;&lt;/div&gt;&lt;/div&gt;" style="shape=partialRectangle;html=1;whiteSpace=wrap;connectable=0;strokeColor=inherit;overflow=hidden;fillColor=none;top=0;left=0;bottom=0;right=0;pointerEvents=1;fontSize=16;align=center;" vertex="1" parent="JRrbheT3QAUAnlSYt-7b-65">
          <mxGeometry width="141" height="115" as="geometry">
            <mxRectangle width="141" height="115" as="alternateBounds" />
          </mxGeometry>
        </mxCell>
        <mxCell id="JRrbheT3QAUAnlSYt-7b-67" value="&lt;div style=&quot;border-color: var(--border-color); text-align: left;&quot;&gt;4vCPU&lt;/div&gt;&lt;div style=&quot;border-color: var(--border-color); text-align: left;&quot;&gt;&lt;span style=&quot;border-color: var(--border-color); background-color: initial;&quot;&gt;4G MEM&lt;/span&gt;&lt;/div&gt;&lt;div style=&quot;border-color: var(--border-color); text-align: left;&quot;&gt;&lt;span style=&quot;border-color: var(--border-color); background-color: initial;&quot;&gt;40G DSK&lt;/span&gt;&lt;/div&gt;&lt;div style=&quot;border-color: var(--border-color); text-align: left;&quot;&gt;&lt;span style=&quot;border-color: var(--border-color); background-color: initial;&quot;&gt;40G DSK&lt;br&gt;&lt;/span&gt;&lt;/div&gt;&lt;div style=&quot;border-color: var(--border-color); text-align: left;&quot;&gt;&lt;span style=&quot;border-color: var(--border-color); background-color: initial;&quot;&gt;1 NIC&lt;/span&gt;&lt;/div&gt;" style="shape=partialRectangle;html=1;whiteSpace=wrap;connectable=0;strokeColor=inherit;overflow=hidden;fillColor=none;top=0;left=0;bottom=0;right=0;pointerEvents=1;fontSize=16;" vertex="1" parent="JRrbheT3QAUAnlSYt-7b-65">
          <mxGeometry x="141" width="138" height="115" as="geometry">
            <mxRectangle width="138" height="115" as="alternateBounds" />
          </mxGeometry>
        </mxCell>
        <mxCell id="JRrbheT3QAUAnlSYt-7b-68" value="&lt;div style=&quot;border-color: var(--border-color); text-align: left;&quot;&gt;1vCPU&lt;/div&gt;&lt;div style=&quot;border-color: var(--border-color); text-align: left;&quot;&gt;&lt;span style=&quot;border-color: var(--border-color); background-color: initial;&quot;&gt;4G MEM&lt;/span&gt;&lt;/div&gt;&lt;div style=&quot;border-color: var(--border-color); text-align: left;&quot;&gt;&lt;span style=&quot;border-color: var(--border-color); background-color: initial;&quot;&gt;8G DSK&lt;/span&gt;&lt;/div&gt;&lt;div style=&quot;border-color: var(--border-color); text-align: left;&quot;&gt;&lt;span style=&quot;border-color: var(--border-color); background-color: initial;&quot;&gt;2 NIC&#39;s&lt;/span&gt;&lt;/div&gt;" style="shape=partialRectangle;html=1;whiteSpace=wrap;connectable=0;strokeColor=inherit;overflow=hidden;fillColor=none;top=0;left=0;bottom=0;right=0;pointerEvents=1;fontSize=16;" vertex="1" parent="JRrbheT3QAUAnlSYt-7b-65">
          <mxGeometry x="279" width="141" height="115" as="geometry">
            <mxRectangle width="141" height="115" as="alternateBounds" />
          </mxGeometry>
        </mxCell>
        <mxCell id="JRrbheT3QAUAnlSYt-7b-94" value="kmaster" style="text;html=1;strokeColor=default;fillColor=none;align=center;verticalAlign=middle;whiteSpace=wrap;rounded=0;fontSize=19;dashed=1;" vertex="1" parent="1">
          <mxGeometry x="33.5" y="130" width="80" height="30" as="geometry" />
        </mxCell>
        <mxCell id="JRrbheT3QAUAnlSYt-7b-98" value="kworker" style="text;html=1;strokeColor=default;fillColor=none;align=center;verticalAlign=middle;whiteSpace=wrap;rounded=0;fontSize=19;dashed=1;" vertex="1" parent="1">
          <mxGeometry x="103.5" y="160" width="180" height="30" as="geometry" />
        </mxCell>
        <mxCell id="JRrbheT3QAUAnlSYt-7b-100" value="firewall-nfs" style="text;html=1;strokeColor=default;fillColor=none;align=center;verticalAlign=middle;whiteSpace=wrap;rounded=0;fontSize=19;dashed=1;" vertex="1" parent="1">
          <mxGeometry x="263.5" y="190" width="100" height="30" as="geometry" />
        </mxCell>
        <mxCell id="JRrbheT3QAUAnlSYt-7b-101" value="" style="endArrow=none;dashed=1;html=1;rounded=0;entryX=0.5;entryY=1;entryDx=0;entryDy=0;exitX=0.5;exitY=0;exitDx=0;exitDy=0;" edge="1" parent="1" source="JRrbheT3QAUAnlSYt-7b-6" target="JRrbheT3QAUAnlSYt-7b-94">
          <mxGeometry width="50" height="50" relative="1" as="geometry">
            <mxPoint x="8.5" y="270" as="sourcePoint" />
            <mxPoint x="58.5" y="220" as="targetPoint" />
          </mxGeometry>
        </mxCell>
        <mxCell id="JRrbheT3QAUAnlSYt-7b-102" value="" style="endArrow=none;dashed=1;html=1;rounded=0;entryX=0.25;entryY=1;entryDx=0;entryDy=0;exitX=0.5;exitY=0;exitDx=0;exitDy=0;" edge="1" parent="1" source="JRrbheT3QAUAnlSYt-7b-48" target="JRrbheT3QAUAnlSYt-7b-98">
          <mxGeometry width="50" height="50" relative="1" as="geometry">
            <mxPoint x="138.5" y="250" as="sourcePoint" />
            <mxPoint x="188.5" y="200" as="targetPoint" />
          </mxGeometry>
        </mxCell>
        <mxCell id="JRrbheT3QAUAnlSYt-7b-103" value="" style="endArrow=none;dashed=1;html=1;rounded=0;entryX=0.5;entryY=1;entryDx=0;entryDy=0;exitX=0.5;exitY=0;exitDx=0;exitDy=0;" edge="1" parent="1" source="JRrbheT3QAUAnlSYt-7b-11" target="JRrbheT3QAUAnlSYt-7b-98">
          <mxGeometry width="50" height="50" relative="1" as="geometry">
            <mxPoint x="143.5" y="260" as="sourcePoint" />
            <mxPoint x="198.5" y="200" as="targetPoint" />
          </mxGeometry>
        </mxCell>
        <mxCell id="JRrbheT3QAUAnlSYt-7b-104" value="" style="endArrow=none;dashed=1;html=1;rounded=0;entryX=0.75;entryY=1;entryDx=0;entryDy=0;exitX=0.5;exitY=0;exitDx=0;exitDy=0;" edge="1" parent="1" source="JRrbheT3QAUAnlSYt-7b-15" target="JRrbheT3QAUAnlSYt-7b-98">
          <mxGeometry width="50" height="50" relative="1" as="geometry">
            <mxPoint x="203.5" y="260" as="sourcePoint" />
            <mxPoint x="198.5" y="200" as="targetPoint" />
          </mxGeometry>
        </mxCell>
        <mxCell id="JRrbheT3QAUAnlSYt-7b-105" value="" style="endArrow=none;dashed=1;html=1;rounded=0;entryX=0.5;entryY=1;entryDx=0;entryDy=0;exitX=0.5;exitY=0;exitDx=0;exitDy=0;" edge="1" parent="1" source="JRrbheT3QAUAnlSYt-7b-13" target="JRrbheT3QAUAnlSYt-7b-100">
          <mxGeometry width="50" height="50" relative="1" as="geometry">
            <mxPoint x="188.5" y="110" as="sourcePoint" />
            <mxPoint x="238.5" y="60" as="targetPoint" />
          </mxGeometry>
        </mxCell>
        <mxCell id="JRrbheT3QAUAnlSYt-7b-109" value="" style="aspect=fixed;sketch=0;html=1;dashed=0;whitespace=wrap;fillColor=#2875E2;strokeColor=#ffffff;points=[[0.005,0.63,0],[0.1,0.2,0],[0.9,0.2,0],[0.5,0,0],[0.995,0.63,0],[0.72,0.99,0],[0.5,1,0],[0.28,0.99,0]];shape=mxgraph.kubernetes.icon2;kubernetesLabel=1;prIcon=control_plane" vertex="1" parent="1">
          <mxGeometry x="157.68999999999994" y="1070" width="72.92" height="70" as="geometry" />
        </mxCell>
        <mxCell id="JRrbheT3QAUAnlSYt-7b-110" value="" style="aspect=fixed;sketch=0;html=1;dashed=0;whitespace=wrap;fillColor=#2875E2;strokeColor=#ffffff;points=[[0.005,0.63,0],[0.1,0.2,0],[0.9,0.2,0],[0.5,0,0],[0.995,0.63,0],[0.72,0.99,0],[0.5,1,0],[0.28,0.99,0]];shape=mxgraph.kubernetes.icon2;kubernetesLabel=1;prIcon=node" vertex="1" parent="1">
          <mxGeometry x="37.33" y="1230" width="72.92" height="70" as="geometry" />
        </mxCell>
        <mxCell id="JRrbheT3QAUAnlSYt-7b-111" value="" style="aspect=fixed;sketch=0;html=1;dashed=0;whitespace=wrap;fillColor=#2875E2;strokeColor=#ffffff;points=[[0.005,0.63,0],[0.1,0.2,0],[0.9,0.2,0],[0.5,0,0],[0.995,0.63,0],[0.72,0.99,0],[0.5,1,0],[0.28,0.99,0]];shape=mxgraph.kubernetes.icon2;kubernetesLabel=1;prIcon=node" vertex="1" parent="1">
          <mxGeometry x="157.33" y="1230" width="72.92" height="70" as="geometry" />
        </mxCell>
        <mxCell id="JRrbheT3QAUAnlSYt-7b-112" value="" style="aspect=fixed;sketch=0;html=1;dashed=0;whitespace=wrap;fillColor=#2875E2;strokeColor=#ffffff;points=[[0.005,0.63,0],[0.1,0.2,0],[0.9,0.2,0],[0.5,0,0],[0.995,0.63,0],[0.72,0.99,0],[0.5,1,0],[0.28,0.99,0]];shape=mxgraph.kubernetes.icon2;kubernetesLabel=1;prIcon=node" vertex="1" parent="1">
          <mxGeometry x="276.75" y="1230" width="72.92" height="70" as="geometry" />
        </mxCell>
        <mxCell id="JRrbheT3QAUAnlSYt-7b-113" value="kmaster-1.fks.lab" style="text;html=1;strokeColor=none;fillColor=none;align=center;verticalAlign=middle;whiteSpace=wrap;rounded=0;" vertex="1" parent="1">
          <mxGeometry x="145.13" y="1040" width="99" height="30" as="geometry" />
        </mxCell>
        <mxCell id="JRrbheT3QAUAnlSYt-7b-114" value="kworker-1.fks.lab" style="text;html=1;strokeColor=none;fillColor=none;align=center;verticalAlign=middle;whiteSpace=wrap;rounded=0;" vertex="1" parent="1">
          <mxGeometry x="24.29" y="1200" width="99" height="30" as="geometry" />
        </mxCell>
        <mxCell id="JRrbheT3QAUAnlSYt-7b-118" value="kworker-2.fks.lab" style="text;html=1;strokeColor=none;fillColor=none;align=center;verticalAlign=middle;whiteSpace=wrap;rounded=0;" vertex="1" parent="1">
          <mxGeometry x="145.13" y="1200" width="99" height="30" as="geometry" />
        </mxCell>
        <mxCell id="JRrbheT3QAUAnlSYt-7b-119" value="kworker-3.fks.lab" style="text;html=1;strokeColor=none;fillColor=none;align=center;verticalAlign=middle;whiteSpace=wrap;rounded=0;" vertex="1" parent="1">
          <mxGeometry x="263.71000000000004" y="1200" width="99" height="30" as="geometry" />
        </mxCell>
        <mxCell id="JRrbheT3QAUAnlSYt-7b-123" value="kubeadm v1.28.2" style="text;html=1;strokeColor=none;fillColor=none;align=center;verticalAlign=middle;whiteSpace=wrap;rounded=0;fontStyle=1" vertex="1" parent="1">
          <mxGeometry x="13" y="1030" width="57" height="30" as="geometry" />
        </mxCell>
        <mxCell id="JRrbheT3QAUAnlSYt-7b-129" value="" style="endArrow=classic;html=1;rounded=0;dashed=1;exitX=0.5;exitY=1;exitDx=0;exitDy=0;exitPerimeter=0;entryX=0.5;entryY=0;entryDx=0;entryDy=0;" edge="1" parent="1" source="JRrbheT3QAUAnlSYt-7b-109" target="JRrbheT3QAUAnlSYt-7b-114">
          <mxGeometry width="50" height="50" relative="1" as="geometry">
            <mxPoint x="470" y="1320" as="sourcePoint" />
            <mxPoint x="520" y="1270" as="targetPoint" />
          </mxGeometry>
        </mxCell>
        <mxCell id="JRrbheT3QAUAnlSYt-7b-130" value="" style="endArrow=classic;html=1;rounded=0;dashed=1;exitX=0.5;exitY=1;exitDx=0;exitDy=0;exitPerimeter=0;entryX=0.5;entryY=0;entryDx=0;entryDy=0;" edge="1" parent="1" source="JRrbheT3QAUAnlSYt-7b-109" target="JRrbheT3QAUAnlSYt-7b-118">
          <mxGeometry width="50" height="50" relative="1" as="geometry">
            <mxPoint x="204" y="1150" as="sourcePoint" />
            <mxPoint x="84" y="1210" as="targetPoint" />
          </mxGeometry>
        </mxCell>
        <mxCell id="JRrbheT3QAUAnlSYt-7b-131" value="" style="endArrow=classic;html=1;rounded=0;dashed=1;exitX=0.5;exitY=1;exitDx=0;exitDy=0;exitPerimeter=0;entryX=0.5;entryY=0;entryDx=0;entryDy=0;" edge="1" parent="1" source="JRrbheT3QAUAnlSYt-7b-109" target="JRrbheT3QAUAnlSYt-7b-119">
          <mxGeometry width="50" height="50" relative="1" as="geometry">
            <mxPoint x="204" y="1150" as="sourcePoint" />
            <mxPoint x="205" y="1210" as="targetPoint" />
          </mxGeometry>
        </mxCell>
        <mxCell id="JRrbheT3QAUAnlSYt-7b-133" value="LVM 30G&lt;br style=&quot;border-color: var(--border-color);&quot;&gt;/var/lib/longhorn" style="shadow=0;dashed=0;html=1;labelPosition=center;verticalLabelPosition=bottom;verticalAlign=top;align=center;outlineConnect=0;shape=mxgraph.veeam.3d.datastore_volume;" vertex="1" parent="1">
          <mxGeometry x="47" y="1330" width="54" height="34" as="geometry" />
        </mxCell>
        <mxCell id="JRrbheT3QAUAnlSYt-7b-134" value="LVM 30G&lt;br style=&quot;border-color: var(--border-color);&quot;&gt;/var/lib/longhorn" style="shadow=0;dashed=0;html=1;labelPosition=center;verticalLabelPosition=bottom;verticalAlign=top;align=center;outlineConnect=0;shape=mxgraph.veeam.3d.datastore_volume;" vertex="1" parent="1">
          <mxGeometry x="167.63" y="1330" width="54" height="34" as="geometry" />
        </mxCell>
        <mxCell id="JRrbheT3QAUAnlSYt-7b-135" value="LVM 30G&lt;br&gt;/var/lib/longhorn" style="shadow=0;dashed=0;html=1;labelPosition=center;verticalLabelPosition=bottom;verticalAlign=top;align=center;outlineConnect=0;shape=mxgraph.veeam.3d.datastore_volume;" vertex="1" parent="1">
          <mxGeometry x="286.21" y="1330" width="54" height="34" as="geometry" />
        </mxCell>
        <mxCell id="JRrbheT3QAUAnlSYt-7b-136" value="" style="endArrow=none;dashed=1;html=1;rounded=0;entryX=0.5;entryY=1;entryDx=0;entryDy=0;entryPerimeter=0;" edge="1" parent="1" source="JRrbheT3QAUAnlSYt-7b-133" target="JRrbheT3QAUAnlSYt-7b-110">
          <mxGeometry width="50" height="50" relative="1" as="geometry">
            <mxPoint x="380" y="1610" as="sourcePoint" />
            <mxPoint x="430" y="1560" as="targetPoint" />
          </mxGeometry>
        </mxCell>
        <mxCell id="JRrbheT3QAUAnlSYt-7b-137" value="" style="endArrow=none;dashed=1;html=1;rounded=0;entryX=0.5;entryY=1;entryDx=0;entryDy=0;entryPerimeter=0;" edge="1" parent="1" source="JRrbheT3QAUAnlSYt-7b-134" target="JRrbheT3QAUAnlSYt-7b-111">
          <mxGeometry width="50" height="50" relative="1" as="geometry">
            <mxPoint x="84" y="1340" as="sourcePoint" />
            <mxPoint x="84" y="1310" as="targetPoint" />
          </mxGeometry>
        </mxCell>
        <mxCell id="JRrbheT3QAUAnlSYt-7b-138" value="" style="endArrow=none;dashed=1;html=1;rounded=0;entryX=0.5;entryY=1;entryDx=0;entryDy=0;entryPerimeter=0;" edge="1" parent="1" source="JRrbheT3QAUAnlSYt-7b-135" target="JRrbheT3QAUAnlSYt-7b-112">
          <mxGeometry width="50" height="50" relative="1" as="geometry">
            <mxPoint x="263.38" y="1340" as="sourcePoint" />
            <mxPoint x="263.38" y="1310" as="targetPoint" />
          </mxGeometry>
        </mxCell>
        <mxCell id="JRrbheT3QAUAnlSYt-7b-141" value="" style="shape=image;verticalLabelPosition=bottom;labelBackgroundColor=default;verticalAlign=top;aspect=fixed;imageAspect=0;image=data:image/svg+xml,PHN2ZyB4bWxuczp4bGluaz0iaHR0cDovL3d3dy53My5vcmcvMTk5OS94bGluayIgeG1sbnM9Imh0dHA6Ly93d3cudzMub3JnLzIwMDAvc3ZnIiB3aWR0aD0iMzA0IiB2aWV3Qm94PSIwIDAgMzA0IDM1MSIgaGVpZ2h0PSIzNTEiPiYjeGE7PG1hc2sgZmlsbD0iI2ZmZiIgaWQ9ImEiPiYjeGE7PHBhdGggZmlsbC1ydWxlPSJldmVub2RkIiBmaWxsPSIjZmZmIiBkPSJtMCAwaDMxMy4zMDMxNTV2MTU5Ljg2NDg2NWgtMzEzLjMwMzE1NXoiLz4mI3hhOzwvbWFzaz4mI3hhOzxtYXNrIGZpbGw9IiNmZmYiIGlkPSJiIj4mI3hhOzxwYXRoIGZpbGwtcnVsZT0iZXZlbm9kZCIgZmlsbD0iI2ZmZiIgZD0ibTAgMGgzMTMuMzAzMTU1djE1OS44NjQ4NjVoLTMxMy4zMDMxNTV6Ii8+JiN4YTs8L21hc2s+JiN4YTs8ZyB0cmFuc2Zvcm09InRyYW5zbGF0ZSgtMTEgLTUxKSIgZmlsbC1ydWxlPSJldmVub2RkIiBmaWxsPSJub25lIj4mI3hhOzxwYXRoIGZpbGw9IiMwZjE2ODkiIGQ9Im0xMS42Nzg1NzE0IDE4OWgxOS43ODU4MzU3djI2Ljc4OWgyMy45MDM3di0yNi43ODloMTkuNzg1ODM1OHY3NS4yNWgtMTkuNzg1ODM1OHYtMjguNjk1MzMzaC0yMy45MDM3djI4LjY5NTMzM2gtMTkuNzg1ODM1N3ptODYuMTczODQyOSA3NS4yNXYtNzUuMjVoNDYuODAzMDQyN3YxNi4zNTQzMzNoLTI3LjAxNzIwN3YxMi4yNDA2NjdoMjMuOTAzN3YxNi42NTUzMzNoLTIzLjkwMzd2MTMuODQ2aDI3LjAxNzIwN3YxNi4xNTM2Njd6bTY4LjQ5NzE1NjcgMHYtNzUuMjVoMTkuNzg1ODM2djU1LjM4NGgyNy4xMTc2NDN2MTkuODY2em03Ny41MzYzNzItNzUuMjUgMzAuNzMzMzI4IDI3Ljg5MjY2NyAzMC42MzI4OTMtMjcuODkyNjY3aDguOTM4Nzc5djc1LjI1aC0xOS44ODYyNzJ2LTM4LjYyODMzM2wtMTkuNjg1NCAxNy45NTk2NjYtMTkuNzg1ODM1LTE3Ljg1OTMzM3YzOC41MjhoLTE5Ljg4NjI3MnYtNzUuMjV6Ii8+JiN4YTs8ZyB0cmFuc2Zvcm09Im1hdHJpeCgxIDAgMCAtMSAxMS45NTgxMzYgNDU1KSI+JiN4YTs8ZyBtYXNrPSJ1cmwoI2EpIiBmaWxsPSIjMGYxNjg5Ij4mI3hhOzxwYXRoIHRyYW5zZm9ybT0ibWF0cml4KC44MTkxNTIwNCAuNTczNTc2NDQgLS41NzM1NzY0NCAuODE5MTUyMDQgMTExLjg3MDA5MSAtNTEuNzA2NTU2KSIgZD0ibTIwMy40NjA2NzYgOTUuNjg3NTQyNWM2LjkzNjMxIDAgMTIuNTU5MzAxLTE0LjgwOTIxOTQgMTIuNTU5MzAxLTMzLjA3NzMxNzJzLTUuNjIyOTkxLTMzLjA3NzMxNzItMTIuNTU5MzAxLTMzLjA3NzMxNzJjLTYuOTM2MzExIDAtMTIuNTU5MzAxIDE0LjgwOTIxOTQtMTIuNTU5MzAxIDMzLjA3NzMxNzJzNS42MjI5OSAzMy4wNzczMTcyIDEyLjU1OTMwMSAzMy4wNzczMTcyeiIvPiYjeGE7PHBhdGggdHJhbnNmb3JtPSJtYXRyaXgoLS44MTkxNTIwNCAuNTczNTc2NDQgLjU3MzU3NjQ0IC44MTkxNTIwNCA1OC4wODQ2MTEgNDcuNzA0NzY4KSIgZD0ibTMwLjE0MjMyMjMgOTUuNjg3NTQyNWM2LjkzNjMxMDQgMCAxMi41NTkzMDEtMTQuODA5MjE5NCAxMi41NTkzMDEtMzMuMDc3MzE3MnMtNS42MjI5OTA2LTMzLjA3NzMxNzItMTIuNTU5MzAxLTMzLjA3NzMxNzItMTIuNTU5MzAwOSAxNC44MDkyMTk0LTEyLjU1OTMwMDkgMzMuMDc3MzE3MiA1LjYyMjk5MDUgMzMuMDc3MzE3MiAxMi41NTkzMDA5IDMzLjA3NzMxNzJ6Ii8+JiN4YTs8cGF0aCB0cmFuc2Zvcm09Im1hdHJpeCgtMSAwIDAgMSAyNzIuNjI4NTI0IDUzLjY3MDc2MikiIGQ9Im0xMTYuNzMyODE1IDY2LjI3NTI2NzZjNi45MzYzMTEgMCAxMi41NTkzMDEtMTQuODA5MjE5MyAxMi41NTkzMDEtMzMuMDc3MzE3MiAwLTE4LjI2ODA5NzgtNS42MjI5OS0zMy4wNzczMTcxMy0xMi41NTkzMDEtMzMuMDc3MzE3MTMtNi45MzYzMSAwLTEyLjU1OTMwMSAxNC44MDkyMTkzMy0xMi41NTkzMDEgMzMuMDc3MzE3MTMgMCAxOC4yNjgwOTc5IDUuNjIyOTkxIDMzLjA3NzMxNzIgMTIuNTU5MzAxIDMzLjA3NzMxNzJ6Ii8+JiN4YTs8L2c+JiN4YTs8cGF0aCBzdHJva2Utd2lkdGg9IjIwIiBzdHJva2U9IiMwZjE2ODkiIG1hc2s9InVybCgjYSkiIGQ9Im0yNTEuNDY3MDA2IDE3My4wOTk4NDljLTIwLjIzMDA3Ni0zMy42MDk5NjktNTYuODg5NTY1LTU2LjA2NzkwOC05OC43NTU3NzYtNTYuMDY3OTA4LTQwLjcyMDc5OCAwLTc2LjUxNTg3NjYgMjEuMjQ1OTAxLTk3LjA1ODY5NTkgNTMuMzM0NTg4bTIuMTk4MTEwNyAxMjkuMTY5NTM0YzIwLjg0MDMwMzYgMzAuMjMyNzAxIDU1LjU1NTkwNDIgNTAuMDI2NTkxIDk0Ljg2MDU4NTIgNTAuMDI2NTkxIDM5LjM3NjA5OSAwIDc0LjE0NjQyNC0xOS44NjU4ODcgOTQuOTc0MDQ5LTUwLjE5MTQ5NSIvPiYjeGE7PC9nPiYjeGE7PGcgdHJhbnNmb3JtPSJ0cmFuc2xhdGUoMTEuOTU4MTM2KSI+JiN4YTs8ZyBtYXNrPSJ1cmwoI2IpIiBmaWxsPSIjMGYxNjg5Ij4mI3hhOzxwYXRoIHRyYW5zZm9ybT0ibWF0cml4KC44MTkxNTIwNCAuNTczNTc2NDQgLS41NzM1NzY0NCAuODE5MTUyMDQgMTExLjg3MDA5MSAtNTQuMTY2MDE2KSIgZD0ibTIwMy40NjA2NzYgOTUuNjg3NTQyNWM2LjkzNjMxIDAgMTIuNTU5MzAxLTE0LjgwOTIxOTQgMTIuNTU5MzAxLTMzLjA3NzMxNzJzLTUuNjIyOTkxLTMzLjA3NzMxNzItMTIuNTU5MzAxLTMzLjA3NzMxNzJjLTYuOTM2MzExIDAtMTIuNTU5MzAxIDE0LjgwOTIxOTQtMTIuNTU5MzAxIDMzLjA3NzMxNzJzNS42MjI5OSAzMy4wNzczMTcyIDEyLjU1OTMwMSAzMy4wNzczMTcyeiIvPiYjeGE7PHBhdGggdHJhbnNmb3JtPSJtYXRyaXgoLS44MTkxNTIwNCAuNTczNTc2NDQgLjU3MzU3NjQ0IC44MTkxNTIwNCA1OC4wODQ2MTEgNDUuMjQ1MzA4KSIgZD0ibTMwLjE0MjMyMjMgOTUuNjg3NTQyNWM2LjkzNjMxMDQgMCAxMi41NTkzMDEtMTQuODA5MjE5NCAxMi41NTkzMDEtMzMuMDc3MzE3MnMtNS42MjI5OTA2LTMzLjA3NzMxNzItMTIuNTU5MzAxLTMzLjA3NzMxNzItMTIuNTU5MzAwOSAxNC44MDkyMTk0LTEyLjU1OTMwMDkgMzMuMDc3MzE3MiA1LjYyMjk5MDUgMzMuMDc3MzE3MiAxMi41NTkzMDA5IDMzLjA3NzMxNzJ6Ii8+JiN4YTs8cGF0aCB0cmFuc2Zvcm09Im1hdHJpeCgtMSAwIDAgMSAyNzIuNjI4NTI0IDUxLjIxMTMwMikiIGQ9Im0xMTYuNzMyODE1IDY2LjI3NTI2NzZjNi45MzYzMTEgMCAxMi41NTkzMDEtMTQuODA5MjE5MyAxMi41NTkzMDEtMzMuMDc3MzE3MiAwLTE4LjI2ODA5NzgtNS42MjI5OS0zMy4wNzczMTcxMy0xMi41NTkzMDEtMzMuMDc3MzE3MTMtNi45MzYzMSAwLTEyLjU1OTMwMSAxNC44MDkyMTkzMy0xMi41NTkzMDEgMzMuMDc3MzE3MTMgMCAxOC4yNjgwOTc5IDUuNjIyOTkxIDMzLjA3NzMxNzIgMTIuNTU5MzAxIDMzLjA3NzMxNzJ6Ii8+JiN4YTs8L2c+JiN4YTs8cGF0aCBzdHJva2Utd2lkdGg9IjIwIiBzdHJva2U9IiMwZjE2ODkiIG1hc2s9InVybCgjYikiIGQ9Im0yNTEuNDY3MDA2IDE3MC42NDAzOWMtMjAuMjMwMDc2LTMzLjYwOTk2OS01Ni44ODk1NjUtNTYuMDY3OTA4LTk4Ljc1NTc3Ni01Ni4wNjc5MDgtNDAuNzIwNzk4IDAtNzYuNTE1ODc2NiAyMS4yNDU5LTk3LjA1ODY5NTkgNTMuMzM0NTg3bTIuMTk4MTEwNyAxMjkuMTY5NTM0YzIwLjg0MDMwMzYgMzAuMjMyNzAyIDU1LjU1NTkwNDIgNTAuMDI2NTkxIDk0Ljg2MDU4NTIgNTAuMDI2NTkxIDM5LjM3NjA5OSAwIDc0LjE0NjQyNC0xOS44NjU4ODYgOTQuOTc0MDQ5LTUwLjE5MTQ5NCIvPiYjeGE7PC9nPiYjeGE7PC9nPiYjeGE7PC9zdmc+;" vertex="1" parent="1">
          <mxGeometry x="389.5" y="1273.42" width="49" height="56.58" as="geometry" />
        </mxCell>
        <mxCell id="JRrbheT3QAUAnlSYt-7b-143" value="" style="endArrow=classic;html=1;rounded=0;entryX=0;entryY=0.5;entryDx=0;entryDy=0;exitX=0.997;exitY=0.876;exitDx=0;exitDy=0;exitPerimeter=0;" edge="1" parent="1" source="JRrbheT3QAUAnlSYt-7b-139" target="JRrbheT3QAUAnlSYt-7b-141">
          <mxGeometry width="50" height="50" relative="1" as="geometry">
            <mxPoint x="361" y="1267.58" as="sourcePoint" />
            <mxPoint x="390" y="1268" as="targetPoint" />
          </mxGeometry>
        </mxCell>
        <mxCell id="JRrbheT3QAUAnlSYt-7b-148" value="" style="endArrow=classic;html=1;rounded=0;entryX=-0.001;entryY=0.093;entryDx=0;entryDy=0;exitX=1;exitY=0.5;exitDx=0;exitDy=0;entryPerimeter=0;" edge="1" parent="1" source="JRrbheT3QAUAnlSYt-7b-141" target="JRrbheT3QAUAnlSYt-7b-147">
          <mxGeometry width="50" height="50" relative="1" as="geometry">
            <mxPoint x="443.5" y="1267.79" as="sourcePoint" />
            <mxPoint x="477.5" y="1268.21" as="targetPoint" />
          </mxGeometry>
        </mxCell>
        <mxCell id="JRrbheT3QAUAnlSYt-7b-149" value="" style="shape=image;verticalLabelPosition=bottom;labelBackgroundColor=default;verticalAlign=top;aspect=fixed;imageAspect=0;image=data:image/png,iVBORw0KGgoAAAANSUhEUgAABd0AAAXdCAYAAAAcq/T/AAAACXBIWXMAAC4jAAAuIwF4pT92AAAgAElEQVR4nOzd33Hc2LXoYYzL71IGZBUCEG8E5HnGw8gRDBzBpSOwHMHlRDBQBtJDPx8qgkMG0FViBmIEuoWZzTkcNf9zdffaG99XpZLNHtskQHeTv15Y+On79+8dAAAAAADwen9zDAEAAAAAIIboDgAAAAAAQUR3AAAAAAAIIroDAAAAAEAQ0R0AAAAAAIKI7gAAAAAAEER0BwAAAACAIKI7AAAAAAAEEd0BAAAAACCI6A4AAAAAAEFEdwAAAAAACCK6AwAAAABAENEdAAAAAACCiO4AAAAAABBEdAcAAAAAgCCiOwAAAAAABBHdAQAAAAAgiOgOAAAAAABBRHcAAAAAAAgiugMAAAAAQBDRHQAAAAAAgojuAAAAAAAQRHQHAAAAAIAgojsAAAAAAAQR3QEAAAAAIIjoDgAAAAAAQUR3AAAAAAAIIroDAAAAAEAQ0R0AAAAAAIKI7gAAAAAAEER0BwAAAACAIKI7AAAAAAAEEd0BAAAAACCI6A4AAAAAAEFEdwAAAAAACCK6AwAAAABAENEdAAAAAACCiO4AAAAAABBEdAcAAAAAgCCiOwAAAAAABBHdAQAAAAAgiOgOAAAAAABBRHcAAAAAAAgiugMAAAAAQBDRHQAAAAAAgojuAAAAAAAQRHQHAAAAAIAgojsAAAAAAAQR3QEAAAAAIIjoDgAAAAAAQUR3AAAAAAAIIroDAAAAAEAQ0R0AAAAAAIKI7gAAAAAAEER0BwAAAACAIKI7AAAAAAAEEd0BAAAAACCI6A4AAAAAAEFEdwAAAAAACCK6AwAAAABAENEdAAAAAACCiO4AAAAAABBEdAcAAAAAgCCiOwAAAAAABBHdAQAAAAAgiOgOAAAAAABBRHcAAAAAAAgiugMAAAAAQBDRHQAAAAAAgojuAAAAAAAQRHQHAAAAAIAgojsAAAAAAAQR3QEAAAAAIIjoDgAAAAAAQUR3AAAAAAAIIroDAAAAAEAQ0R0AAAAAAIKI7gAAAAAAEER0BwAAAACAIKI7AAAAAAAEEd0BAAAAACCI6A4AAAAAAEFEdwAAAAAACCK6AwAAAABAENEdAAAAAACCiO4AAAAAABBEdAcAAAAAgCCiOwAAAAAABBHdAQAAAAAgiOgOAAAAAABBRHcAAAAAAAgiugMAAAAAQBDRHQAAAAAAgojuAAAAAAAQRHQHAAAAAIAgojsAAAAAAAQR3QEAAAAAIIjoDgAAAAAAQUR3AAAAAAAIIroDAAAAAEAQ0R0AAAAAAIKI7gAAAAAAEER0BwAAAACAIKI7AAAAAAAEEd0BAAAAACCI6A4AAAAAAEFEdwAAAAAACCK6AwAAAABAENEdAAAAAACCiO4AAAAAABBEdAcAAAAAgCCiOwAAAAAABBHdAQAAAAAgiOgOAAAAAABBRHcAAAAAAAgiugMAAAAAQBDRHQAAAAAAgojuAAAAAAAQRHQHAAAAAIAgojsAAAAAAAQR3QEAAAAAIIjoDgAAAAAAQUR3AAAAAAAIIroDAAAAAEAQ0R0AAAAAAIKI7gAAAAAAEER0BwAAAACAIKI7AAAAAAAEEd0BAAAAACCI6A4AAAAAAEFEdwAAAAAACCK6AwAAAABAENEdAAAAAACCiO4AAAAAABBEdAcAAAAAgCCiOwAAAAAABBHdAQAAAAAgiOgOAAAAAABBRHcAAAAAAAgiugMAAAAAQBDRHQAAAAAAgojuAAAAAAAQRHQHAAAAAIAgojsAAAAAAAQR3QEAAAAAIIjoDgAAAAAAQUR3AAAAAAAIIroDAAAAAEAQ0R0AAAAAAIKI7gAAAAAAEER0BwAAAACAIKI7AAAAAAAEEd0BAAAAACCI6A4AAAAAAEFEdwAAAAAACCK6AwAAAABAENEdAAAAAACCiO4AAAAAABBEdAcAAAAAgCCiOwAAAAAABBHdAQAAAAAgiOgOAAAAAABBRHcAAAAAAAgiugMAAAAAQJC/O5DUYuyHo67r3pZP9+TWp33yw5cw/zPvnFgAAACA9K66rvv6wyd50XXdt/Kvv948Pq1X504nNfjp+/fvThQpjP0wx/I5rB+WPzeRff77jbMEAAAAQNd1lyXK38T5OcZ/m9arCweHDER39mLsh5NbYf1IWAcAAAAgwGWZjL8oMf5iWq++ObDskujO1o39cFhWwByVv61+AQAAAGBXrkqE/z3EW1PDtonuhCu7109u/THBDgAAAEAmX25Nwn9yZogkuvNqZRf7+xLZ34vsAAAAAFTmJsJ/shue1xLdeZEyzf6+/LEuBgAAAIBWXM/xvQR4U/A8m+jOk5XQPpbQfuDIAQAAALAAn29FeDdl5VGiOw8S2gEAAADgT59LfJ8cEu4jurNh7IfDEtlPhXYAAAAA2HCzgmaa1qvzjUdZNNGdP4398L5Mtf/sqAAAAADAk1x1XXdWArz1M4juS1em2sfyx1Q7AAAAALzcR9PviO4LNfbDSQntvyz9WAAAAABAsHn6/YPd78skui/M2A83U+3HSz8WAAAAALBl12X1zJnVM8shui9Eie0frJABAAAAgJ27ufHqPP3+1eFvm+jeOLEdAAAAAFL5KL63TXRvlNgOAAAAAKmJ740S3RsjtgMAAABAVeb4fmrneztE90aM/XDSdd0ktgMAAABAddxwtSGie+XGfjgq/4c8XvqxAAAAAIDKXZep98mJrJfoXqmxH96W2P7L0o8FAAAAADTmssT3cye2PqJ7hcZ+OC17298s/VgAAAAAQMM+l/juZqsVEd0rUlbJzJeWvFv6sQAAAACAhZhXznyY1qszJ7wOonsFyiqZebL9/y79WAAAAADAQs0rZ8ZpvbrwDZCb6J7c2A8nZbr9YOnHAgAAAADofi2T798cipxE96RMtwMAAAAA97gqU+9utJqQ6J6Q6XYAAAAA4Al+ndarUwcqF9E9EdPtAAAAAMAz2fWejOiexNgPR2W6/d3SjwUAAAAA8Gz/mtarM4dt/0T3BMZ+OC0T7m+WfiwAAAAAgBf7XKbe3WR1j0T3PSrrZObp9p8XexAAAAAAgEjXXdedWDezP39b6he+b2WdzIXgDgAAAAAEmrdp/E/ZrsEemHTfg7Efxq7rzqyTAQAAAAC2yLqZPTDpvmNjP8yx/TfBHQAAAADYsnnLxnnZusGOmHTfkbK//VPXdceL+IIBAAAAgCzmPe/vp/Xq3BnZPpPuO1DeSToX3AEAAACAPZi3bvx3WXvNlpl037KxH07KhLt1MgAAAADAvn2c1ivxfYtE9y0q7xz91uwXCAAAAADUyA1Wt0h035KxH067rvt/TX5xAAAAAEDtLruuOxHe49npvgVjP0yCOwAAAACQ2Lv5PpTlfpQEMukerAT3X5r6ogAAAACAVl2XifcLZziG6B5k7Ie3XdfNwf3nJr4gAAAAAGAphPdAonuAEtzPyyUZAAAAAAC1Ed6D2On+SoI7AAAAANCAN3a8xxDdX0FwBwAAAAAaIrwHEN1fSHAHAAAAABokvL+S6P4CgjsAAAAA0DDh/RVE95f5JLgDAAAAAA0T3l9IdH+msR+mruuOq/qkAQAAAACeT3h/gZ++f/9e3Se9LyW4/7LMrx4AAAAAWKjrrusOp/Xqm2+Ax5l0f6KxHz4I7gAAAADAAt1MvL918h9n0v0Jxn4Yu677Lf0nCgAAAACwPZdd152YeH+YSfdHjP3wXnAHAAAAAOjedV135jA8THR/QLlBwHT/PwEAAAAAsCi/jP0gvD/Aepl7lP1EF13XHdz9TwAAAAAALNY/p/XKwPIdTLrf71xwBwAAAAC4029lUwg/EN3vMPbDVPYTAQAAAABwt/OyMYRbRPcfjP0wznuJNh4AAAAAAOC2N2VjCLeI7reUyyF+23gAAAAAAIC7vCubQyjcSLUol0F8Le/OAAAAAADwdG6sWph0/1+fBHcAAAAAgBc5c2PVP4juf0y5f+i67njjAQAAAAAAnmIeaJ7cWFV0n4P7Sdd1/954AAAAAACA53g3T7wv/Ygteqd7edflouu6g40HAQAAAAB4iX9M69WnpR65pU+6T4I7AAAAAECoec3M4VIP6WKj+9gP77uu+3njAQAAAAAAXuNNGXhepEVG97JWZrEnHQAAAABgy47Hfjhd4kFe6qT7p/JuCwAAAAAA2/FhiWtmFhfdx34Y53dZNh4AAAAAACDSItfM/PT9+/eND7aqrJX5asodAAAAAGBn/jWtV2dLOdxLm3SfBHcAAAAAgJ1a1JqZxUT3sR/ed13388YDAAAAAABs0zwIvZhJ90WslylrZS66rjvYeBAAAAAAgF34x7RefWr9SC9l0v1UcAcAAAAA2KuzMiDdtOaje9kV9O+NBwAAAAAA2KWDMiDdtCVMuk8bHwEAAAAAYB/+3fpNVZuO7mM/nHRdd7zxAAAAAAAA+9L0TVVbn3Q35Q4AAAAAkMvPZWC6Sc1G97EfRjdPBQAAAABIqdlp95++f/++8cHalTvgfu267k1zXxwAAAAAQBv+Oa1XzW0raXXS/VRwBwAAAABI7UOLp6e56F6m3E83HgAAAAAAIJODsia8KS1OuptyBwAAAACow1kZpG5GU9HdlDsAAAAAQFXetNZ0W5t0N+UOAAAAAFCX05am3ZuJ7qbcAQAAAACq1NS0e0uT7qbcAQAAAADq1MwNVZuI7qbcAQAAAACqdjD2QxPhvZVJd1PuAAAAAAB1+9DC+Wslujdz6QEAAAAAwEI1Me1efXQvJ+Fg4wEAAAAAAGojuidglzsAAAAAQBuOx344qvkrqTq6j/1w0nXdu40HAAAAAACoVdWD1rVPutvlDgAAAADQll/Gfnhb61dUbXQvB/2XjQcAAAAAAKhdtQPXNU+6m3IHAAAAAGhTtStmao7ubqAKAAAAANCmg3JPz+pUGd3LwT7YeAAAAAAAgFZUue2k1kl3q2UAAAAAANpW5Q1Vq4vu5SC/33gAAAAAAIDWVNeCa5x0nw/ym42PAgAAAADQmuru7VlrdAcAAAAAoH3vxn44rOmrrCq6l9UyP288AAAAAABAq6oaxK5t0t2UOwAAAADAsow1fbWiOwAAAAAAmVW1Yqaa6G61DAAAAADAYlUzkF3TpLspdwAAAACAZapmxYzoDgAAAABAdu/KNpT0aoruVssAAAAAACxXFYPZVUT3sR9MuQMAAAAALJvoHuikks8TAAAAAIDtqKIT1xLdTboDAAAAACzbm7Ef0of39NF97IfDrusONh4AAAAAAGBpRPcAVssAAAAAANCJ7jFEdwAAAAAAZsdjP7zNfCREdwAAAAAAanKU+XNNHd3tcwcAAAAA4AepB7WzT7qbcgcAAAAA4DbR/RVSXyYAAAAAAMDOHWc+5CbdAQAAAACoytgPaQe2s0f3dxsfAQAAAABg6dIObKeN7mM/mHIHAAAAAOAuJt1fwD53AAAAAADuIrq/gOgOAAAAAMBd0q4mzxzdDzc+AgAAAAAAiVeUZ47uxxsfAQAAAACAP6Qc3E4Z3cd+sFoGAAAAAICHiO7PYLUMAAAAAAAPsV7mGUy6AwAAAADwEJPuz2DSHQAAAACAhxw88NjeiO4AAAAAAFQp4/1BrZcBAAAAAKBWb7N93lmj+5uNjwAAAAAAwF+lu5lquuie8XIAAAAAAAB4ioyT7ukuBwAAAAAAICWT7k/gJqoAAAAAAFRJdAcAAAAAoFbp1pVnvZEqAAAAAAA85s0jj+9cxuiebgcPAAAAAAA8hUl3AAAAAACqNfZDqkFu0R0AAAAAAIJkjO7HGx8BAAAAAIAKmHQHAAAAAKBmh5k+d9EdAAAAAICaie4AAAAAANCiVNF97IdU70gAAAAAAMBzZJt0F90BAAAAAKiW9TIAAAAAABBEdAcAAAAAgCCiOwAAAAAANTvJ9LmL7gAAAAAAEER0BwAAAACAIKI7AAAAAAAEEd0BAAAAACCI6A4AAAAAAEFEdwAAAAAACCK6AwAAAABAENEdAAAAAACCiO4AAAAAABBEdAcAAAAAgCCiOwAAAAAABBHdAQAAAAAgiOgOAAAAAABBRHcAAAAAAAgiugMAAAAAQBDRHQAAAAAAgojuAAAAAAAQRHQHAAAAAIAgojsAAAAAAAQR3QEAAAAAIIjoDgAAAAAAQUR3AAAAAAAIIroDAAAAAEAQ0R0AAAAAAIKI7gAAAAAAEER0BwAAAACAIKI7AAAAAAAEEd0BAAAAACCI6A4AAAAAAEFEdwAAAAAACCK6AwAAAABAENEdAAAAAACCiO4AAAAAABBEdAcAAAAAgCCiOwAAAAAABBHdAQAAAAAgiOgOAAAAAABBRHcAAAAAAAgiugMAAAAAQBDRHQAAAAAAgojuAAAAAAAQRHQHAAAAAIAgojsAAAAAAAQR3QEAAAAAIIjoDgAAAAAAQUR3AAAAAAAIIroDAAAAAEAQ0R0AAAAAAIKI7gAAAAAAEER0BwAAAACAIKI7AAAAAAAEEd0BAAAAACCI6A4AAAAAAEFEdwAAAAAACCK6AwAAAABAENEdAAAAAACCiO4AAAAAABBEdAcAAAAAgCCiOwAAAAAABBHdAQAAAAAgiOgOAAAAAABBRHcAAAAAAAgiugMAAAAAQBDRHQAAAAAAgojuAAAAAAAQRHQHAAAAAIAgojsAAAAAAAQR3QEAAAAAIIjoDgAAAAAAQUR3AAAAAAAIIroDAAAAAEAQ0R0AAAAAAIL83YGEvbnsuu5b13Xn5RO4+bub1qvzxz6psR+Ouq57W/7tzb+++ft44z8AAAAAZPSl9IGLW3/PLqb16ttTPt9bjeDtD43gsOu6g43/ALBVojvsxpfyonlRXjQvXvu/+sN/x0akH/vhsLzAzn9Oyt9vNv6LAAAAgF256QPnpQ98jfjf/aERfPrx8bEfTn5oBEI8bNFP379/T3N8yxPAf288APW5LC9y50+ZWt+V8s73/P+z96bhAQAAYOsuS2D/lKwPHJY+cNMIDOlRuy/TenWS5WsQ3SHO51uhPeSd6m0a++FteWH1AgsAAABxPt8K7en7QPe/Q3pj6QOm4KmR6H4f0Z0Kze9Yn5UX0iftWcvoVoCf//zsGxEAAACe5epWH6gitN/nVoAfDehREdH9PqI7lbguE+0fan8hvUu5xGx+YT314goAAAAP+jivVM+0OibS2A838d2KWrIT3e8jupPczbvWU81T7c9RXlw/uLQMAAAA/nRd+sDZgvrAURnO+2XjQchBdL+P6E5SV2WqfVrqCfLONgAAACwvtv+oXB3/QXwnIdH9PqI7ySw+tv/I5DsAAAALtPjY/iPxnYRE9/uI7iThxfQRJb6f2fkOAABA434tA3n6wB3K2pkzV8aTQKro/reNj8Cyfe667mhar7ygPqBM/x+WHz4AAACgNV+6rvs/03p1qg/cb1qvLkro/GcZYoTF60R3+NO8Sua/pvXq/bRefXVYHjf/0DH/8DH/ENJ13WX2zxcAAACeYA7H/5pD8hyUHbCnMZwHfyW6wx8vCPN0+7lj8XzlXe35crL/1Pa5AwAAwC3z1e+H03p15qA8363hvP8qw42wWKI7S3ZdpttdKhZgXslj6h0AAIAK3Uy3v9cHXq8MNc7DeR9r/1rgpUR3lurm3WvT7YHKpXcnXlgBAACoxDw4dmK6PVaZeh/temepRHeW6D/evd4eL6wAAABU4mMJ7na3b0nZ9X7iqniWRnRnSW7WyXxw1rfv1gurPW4AAABkM6+TGQ3kbd+tq+I/t/61wg3RnaW4Ku9eWyezQ+WF9cg72gAAACRxM5BnncwOlavi33dd9+tivmgWTXRnCebge+Rysf0oUwP2vAMAALBv1wby9mtar07LOlpomuhO676UF1SXi+3RrT3vwjsAAAD7YCAvibKOVninaaI7Lfs4rVeCeyLCOwAAAHtwWQbyvjr4OZTw/o9y9QE0R3SnVR9L4CUZ4R0AAIAdunQFfE7TevWprKMV3mmO6E6LBPfkhHcAAAB2QHBPrqz7eb/040B7RHdacym410F4BwAAYIsE90qUG9va8U5TRHdaclkuS6ISwjsAAABbMK8rGQX3eri5Kq0R3WnFlXewq3Va3jABAACA17oufeDCkaxLCe+/Lv040AbRnRbML6jvBfc6lfN2Ut44AQAAgNc4FdzrNa1Xp66IpwWiOy0YvaDWrYT39+5YDgAAwCv8p0xLUzdXxFM90Z3azS+on5zF+pU3Tk6XfhwAAAB4kc/TevXBoaufwTxaILpTsy9eUNtifxsAAAAvMK8rHR24dkzr1VfnlJqJ7tTqurzrSXs+uIwMAACAZxjd5609ZbOBwTyqJLpTKy+ojSrn1bvZAAAAPMW8dvbckWqWwTyqJLpTo8/2uLet7Hf/19KPAwAAAA+6tHa2bQbzqJXoTm2uPdkuw7RenXk3GwAAgAfoAwtQBvP+s/TjQF1Ed2pjrcyy+AEKAACAu/ynxFiW4azcMBeqILpTky/WyiyLd7MBAAC4w1WJsCyENTPURnSnJp5cl+msrBUCAACA2amr4Jen3DD389KPA3UQ3anFfNnYV2drecoPUqdLPw4AAAD8zlXwy6YPUAXRnRpcu2xs2ab1anJTVQAAALqu++AgLFcZyPx16ceB/ER3anDmsjG8mw0AALB4H8uKEZbtgzW0ZCe6k50pd35XfrD64mgAAAAslil3btbQakWkJrqTnSl3bvMDFgAAwDJ9dK83bjkz7U5mojuZmXLnL8q0u93uAAAAy6MP8CfT7mQnupOZKXfu4kUVAABgWb5M69WFc84Ppo2PQBKiO5l58mTDtF7N3xdXGw8AAADQKsNXbCjrhj5uPAAJiO5kZVcbD/GGDAAAwDJcTevVJ+eae+gDpCS6k5UnTR7i+wMAAGAZ/P7Hvcq931wNTzqiOxldlSdNuFO5CuLzXY8BAADQFNGdx1g/RDqiOxl5QeUpXF4IAADQts9Wz/IEOhLpiO5k5MmSR5Ubql47UgAAAM0ybMWjpvXqm6vhyUZ0J5tL72LzDH4AAwAAaJff+Xgq3yukIrqTjSl3nsOLKgAAQJs+lwlmeAp9gFREd7JxA1Wew/cLAABAm/y+x5OVN2i+OGJkIbqTydW0Xl04IzyVF1UAAIBmmVzmuXzPkIboTibexeYlvKgCAAC05cr93ngBXYk0RHcyEU95CS+qAAAAbfF7Hs9WtidcO3JkILqTiRdVns2LKgAAQHP0AV7K9w4piO5kceWu5LyCewEAAAC0QzjlpXzvkILoThaeFHkN3z8AAABtuLbPnVcwlEcKojtZeFLkNXz/AAAAtMHvd7zYtF4ZyiMF0Z0svKjyGr5/AAAA2iCa8lqXjiD7JrqThWjKi7n0EAAAoBn6AK+lEbB3ojsZXLuJKgG+OIgAAADV0wd4LW/csHeiOxl4MiSCd7IBAAAqZyc3AfQB9k50JwPvYhPBiyoAAEDdrp0/AugD7J3oTgYm3Yng+wgAAKBufq8jgujO3onuQCtcMQEAAFA30Z1Xm9Yr0Z29E93JwL42Xs3ePwAAgOoZpgKaILoDLbH/DwAAoF6GqYhy6UiyT6I70BKXIgIAANTLpDtRfC+xV6I70BJ72wAAACo1rVcGqYAmiO5kIJQSxfcSAABAna6cN6AVojt7567SBLL/DwAAoE7aANAM0R1oiZ1tAAAAdTJEBTRDdAeaYf8fAABAtQxRAc0Q3dm7sR+OnAUC2QMIAABQH0NUQDNEdzJ46ywQyB5AAACA+vhdDmiG6A60xnQEAABAZab1SnQHmiG6A62xBxAAAKAul84XwQ4dUPZJdCcD62WI5I73AAAAdTE8RbQDR5R9Et3JwI1UieSSRAAAgLoYngKaIroDTbEHEAAAoDp+jyPM2A+GO9k70Z0MTpwFgtkHCAAAUA/RnUjWGLN3ojvQIvsAAQAA6nHhXBHIpDt7J7qTwbGzQDD7AAEAACoxrVcGp4hk0p29E91JYewHT4hE8gMbAABAHb44TwSzxpi9E93JwqU/RHJpIgAAQB0MTRHNYCd7J7qThehOJDfhAQAAqIOhKaK9c0TZN9GdLLwLSZhpvRLdAQAA6uD3N8KM/WCokxREd7Kwb4to9gICAADkJ7oTyVAnKYjuZOFJkWj2AgIAACQ3rVfnzhGBDHWSguhOFvZtEc1eQAAAgNyunR+CGeokBdGdNMZ+OHQ2COQSRQAAgNwMSxHNTndSEN3JRHQnkugOAACQm9/biKYtkYLoTibejSSSiQkAAIDcRHeiHTiiZCC6k4l3IwkzrVdupAoAAJCbYSnCjP1gmJM0RHcy8eRItC+OKAAAQFqGpYhkmJM0RHcy8eRINJcqAgAAJDWtV+fODYEMc5KG6E4m9m4RTXQHAADI6cp5IZhhTtIQ3UnF/i2C2Q8IAACQkyEpoonupCG6k81bZ4RA9gMCAADkZEiKaAY5SUN0J5sTZ4Qo9gMCAACkZUiKaG8cUbIQ3cnGpUBEu3ZEAQAA0jEkRZixHwxxkoroTjaiO9FcsggAAJCPSXciWVdMKqI72di/RTQ35wEAAEhmWq8MSBFJTyIV0Z1s7N8imugOAACQy5XzQTDRnVREd9Kxh4tg9gQCAADkYjiKaNbLkIroTkaeKIlkTyAAAEAuhqOIduyIkonoTkYuCSKMPYEAAADpGI4izNgPhjdJR3Qno0NnhWD2BQIAAORhOIpIhjdJR3QnI9GdaPYFAgAA5OF3NCLpSKQjupORPVxEM0UBAACQxLReie5EEt1JR3QnJfu4COYHOgAAgBwunQeCWS9DOqI7WXnCJJJJdwAAgBzcRJVoJt1JR3QnK0+YRDLpDgAAkMO580Cwdw4o2YjuZCW6E8a+QAAAgDT8fkaYsR/0I1IS3cnKehmi2RsIAACwf6I7kUR3UhLdycqNVIlmbyAAAMD+uecWkQxtkpLoTlbHzgzB7A0EAADYs2m9MhBFJEObpCS6k5a9XATzgx0AAMB+fXH8CXbigJKR6MFLTIQAACAASURBVE5mojuRXMIIAACwX4ahiGbSnZREdzKzl4tIojsAAMB++b2MaO8cUTIS3cnMu5WEsTcQAABg7746BUQZ+8GwJmmJ7mRmLxfR7A8EAADYH9GdSIY1SUt0JzNPnkQz7Q4AALAn03p17tgTyLAmaYnuZGYvF9HsDwQAANiPa8edYIY1SUt0J7WxHw6dIQK5lBEAAGA/DEERzU530hLdyU50J5LoDgAAsB9+HyOaZkRaojvZ2c9FJJMVAAAA+yG6E+3AESUr0Z3s7OcizLRefbNHEAAAYC8MQRFm7AdDmqQmupOd/VxE84MeAADA7n1zzAlkSJPURHeys5+LaC5pBAAA2LFpvTp3zAlkSJPURHeys5+LaKI7AADAbl053gQzpElqojvpjf3g3UsiWS8DAACwW4afiCa6k5roTg3s6SKSPYIAAAC7ZfiJaAY0SU10pwbuSE0YewQBAAB2zvAT0d44omQmulMDlwwR7UvXddeOKgAAwNZddl33yWEmytgPhjNJ7+9OERUQ3Qk1rVe/v0CP/XBYLkk7KldUHHm3HAAA4MUuyyqZ3/+40pgt0YlIT3SnBvZ0sRXTevW13NDnz6kLIR4AAOBJBHb2RXQnPdGdGgie7IwQDwAAsEFgJxPDmaQnulOFeV+XF3X2RYgHAAAWRGAnu7fOENmJ7tTCEyqpCPEAAEADBHZqdOyskZ3oTi2O3O2c7IR4AAAgMYGd6o39YCiTKoju1MJNMqiSEA8AAOyBwE6r7HOnCqI7tRDdaYYQDwAABBLYWRJ9iCqI7tTCvi6aJsQDAABPILCzdKI7VRDdqca8t2tar745YyyFEA8AAIsmsMOmk42PQEKiOzWZ46IfMlg0IR4AAJoksMPTuJEqVRDdqYlLiOAOQjwAAFRFYIeXe+fYUQPRnZqI7vBEQjwAAKQgsEOQ8jstVEF0pyZHzha8nBAPAABbJbDDdonuVEN0pyb2dkEwIR4AAF5EYIfdM4xJNUR3anLsbMH2CfEAAPAXX0pc/yqww14ZxqQaojtVmcNfCYLADgnxAAAsxJcfJtgvnHhI48SpoBaiO7U5LOEP2DMhHgCAygnsUBc73amG6E5t5oDnUj5ISogHACApgR3qd+AcUgvRndrY3wWVEeIBANgxgR0aM/aDm6hSFdGd2tjfBQ0Q4gEACCKwwzIYwqQqoju18SQLjRLiAQB4hMAOy2UIk6qI7tTmnTMGyyHEAwAslsAO3GYIk6qI7lRn3uPlBy5YLiEeAKA5AjvwGDvdqYroTo28uwn8hRAPAFANgR14iUNHjZqI7tRojmfnzhzwECEeAGDvBHYgyoEjSU1Ed2pk0h14kSeG+EM/0AEAPJvADmzF2A9uokp1RHdqZI8XEOaeEP/2h2n4IyEeAOBPAjuwS4YvqY7oTo3s8QK2alqvvpU1Vn+ushLiAYCFEtiBfTN8SXVEd2okcgE7J8QDAAsgsAMZGb6kOqI7VRr74cgPgMC+CfEAQMUEdqAWojvVEd2p1WH54RAgFSEeAEhIYAdqZr0M1RHdqdXR7ZseAmQmxAMAOySwA61544xSG9GdWrm0CKiaEA8ABBDYgaaN/XDiDFMj0Z1aie5Ac4R4AOABAjuwRPoPVRLdqZV9XsAiCPEAsEgCO8AfRHeqJLpTK/u8gMUS4gGgKQI7wP0MXVIl0Z1qzXu9pvXq3BkEEOIBoBICO8DzvHW8qJHoTs088QI8QIgHgL0S2AFe79gxpEaiOzWbQ9EnZxDg6YR4ANgKgR0gWPk9BaokulMze70AAgjxAPAsAjvAbug+VEt0p2be8QTYEiEeAH4nsAPsz6FjT61Ed2pmrxfADgnxADROYAfIRXSnWqI7VZtjT4lAAOyBEA9Aha5vx3WBHSCtE6eGWonu1O7odugBYP+EeAASuQns57cC+1cnCKAK1gpTLdGd2rnUCKACQjwAOyCwA7TlnfNJrUR3aie6A1RKiAfgFQR2gIaN/aD3UDXRndodOYMA7RDiAbiDwA6wPKI7VRPdqZ0nYYDGCfEAiyKwA9AZsqR2oju1s98LYIGEeIAmCOwA3MeQJVUT3anevOfLD+cACPEAqQnsADyHSXeqJrrTgvndTz+wA7BBiAfYC4EdgNcy6U7VRHdacHQ7pgDAQ4R4gFACOwDb4Gdxqia604K3ziIAryHEAzyJwA7A1o39YLUM1RPdacGJswhANCEeWDiBHYB9MVxJ9UR3WuDJGICdeCTE3/7zzhkBKiKwA5CJ4UqqJ7rTAmEDgL25K8R3f8T4EyEeSEhgByA7w5VUT3SnCfO+r2m9unA2AchiWq+EeGDfBHYAamSnO9UT3WmFd0EBSE+IB7ZIYAegFaI71RPdacXJjxEDAGogxAMvILAD0LI3zi61E91phUl3AJohxAO3COwALEb5mReqJ7rTCpceAdA0IR4WQWAHYOkMVdIE0Z1WHDqTACyNEA9VE9gBYJOhSpogutOKA2cSAIR4SEpgB4CnMVRJE0R3mjH2w9G0Xl04owDwV0I87JTADgAvJ7rTBNGdlhyWX2wAgEcI8RBCYAeAWNbL0ATRnZbMT8yfnFEAeBkhHh4ksAPAFo39MN9E9Y1jTAtEd1riEiQACCbEs1ACOwDsnil3miG60xLRHQB2QIinMQI7AOSg69AM0Z2WeEcUAPZEiKcSAjsA5CW60wzRnZbY+wUAiQjx7JnADgB1MUxJM0R3mjL/Il9+wQcAEhLi2RKBHQDq99Y5pBWiO63xBA0AlRHieaarm7Bevm++CuwA0IRjp5FWiO60Zv6l/JOzCgB1E+Ipfgzs8wT7NwcHANoy9oN97jRFdKc19n8BQKOE+OYJ7ACwXKI7TRHdaY3oDgALIsRXS2AHAG47cTRoiehOaw7GfnjrlzYAWC4hPh2BHQB4jCFKmiK606ITe90BgNuE+J0R2AGAlxDdaYroTovcTBUAeJQQ/2oCOwDwauUmqgeOJC0R3WmRPWAAwIsI8ff6/+zdzW0cWZaw4UCj96QHKSAMoDwgZx0LyQOFByUPpM+CkgfKsaA1i1w3ZcFIBiRG8oDy4EOWLqv5kySTzBMR9+d5AEIzrEKjeKM62XjjxAmBHQCYio5DdUR3anRurzsAEKXBEC+wAwBzEt2pjuhOrex1BwAmU1GIF9gBgKWJ7lRHdKdWb0V3AGBOBYR4gR0AyMrYD6/tc6dGoju1cpcUAFjcASF+9+Kw8wn+OQV2AKAEb10laiS6U6vV7m7perv55goDADl5IMS/vjMR/5wQL7ADAKUS3amS6E7Nxq7r3rvCAEDu0qDArWGBB0K8wA4AVGHsh1eVvYwe/ia6U7O3ojsAUKp9IR4AoCKaDdX6h0tLxXYrZjymBAAAAJAfzYZqie7Uzgc4AAAAQEbSkOTKNaFWoju1ezf2w6mrDAAAAJANQ5JUTXSnBXaEAQAAAGQgvUD1nWtBzUR3WiC6AwAAAORhdB2onehOC07GfvCBDgAAALCgtALYcCTVE91pxUdXGgAAAGBRu+B+4hJQO9GdVqxMuwMAAAAsw5Q7LRHdaYlpdwAAAIBlmHKnGaI7LTHtDgAAADAzU+60RnSnNZ/SBz0AAAAA8/hoyp2WiO605sSdVQAAAIB5jP3wquu6Pxw3LRHdadGH9IEPAAAAwLTWzpfWiO60ygc+AAAAwITGfnjbdd25M6Y1ojutOvdSVQAAAIBppHfqGXqkSaI7LfNSVQAAAIBprL08lVaJ7rRs98H/xb8BAAAAAHHSWpk3jpRWie60brdm5n3rhwAAAAAQwVoZEN1h58+xH147CQAAAICjfbFWhtaJ7vDbF/vdAQAAAF5u7IePu60CjpDWie7w28qjTwAAAAAvk/a4f3B8ILrDTW/GfvjkRAAAAAAOl9b2GmaERHSH2/4Y+2G8910AAAAA7knreu1xhxtEd7jv89gPF/e+CwAAAMDfUnC/TGt7gUR0h/2+pEejAAAAANhvF9zP9v4VaJjoDvvtHom6FN4BAAAA7hv7YS24w36iOzxMeAcAAAC4IwX3d/f+AvAX0R0eJ7wDAAAAJII7PE10h6cJ7wAAAEDTdi9NHfvhUnCHp4nucJjr8D46LwAAAKAlu+CeXpp67sLD00R3ONwuvH8e++G9MwMAAABakJ78/+alqXA40R2e78+0vwwAAACgWmM/vE0T7itXGQ4nusPLvBv74Vt6vAoAAACgKmM/fOy67l/pyX/gGUR3eLndY1U/xn64cIYAAABADW68MPWDCwovI7rDcXZ3e/899sMn5wgAAACULA0W/vDCVDjOP50fhPgj/WIa19vNN0cKAAAAlCKtz92tk/nDRYPjmXSHOLt1M/+723lm1zsAAABQgjRE+E1whziiO8Tb7Tz7Ztc7AAAAkKuxH16N/fBltza367qVCwVxrJeBaazSrvevaeXMD+cMAAAALC09nf8+fZ24IBDPpDtMa/fikf8b+2G9u4PsrAEAAICljP0wplUyHwR3mI5Jd5jHu93X2A//vXsxicl3AAAAYC4ptn+0RgbmIbrDvG7G90/r7eab8wcAAACipTUyY1ojI7bDjER3WMZ1fN/tfF+vt5u16wAAAAAca+yH1ym0v7VCBpYhusOydjvfz8d++LSL7ynAm34HAAAADpam2t+m2H7m5GBZojvkYXfn+Y/d19gPP7uu+yLAAwAAAA8Z++FV13UXKba/eeBvAxYgukN+VncC/OX1lxewAgAAQLvGfri4EdpNtEOmRHfI2+p6/3v3+5frdYTfTcB/W283l64fAAAA1CdNsr9Okf11WlELFEB0h7LcjfC7P75fR3ghHgAAAMqTXn5698tLUKFQojuU7yx9CfEAAACQuT2B3QQ7VEZ0hzoJ8QAAALAwgR3aJLpDO4R4AAAAmIjADlwT3aFtQjwAAAA8k8AOPEZ0B+4S4gEAACAR2IHnEt2BQwjxAAAAVE9gByKI7sBLCfEAAAAUS2AHpiK6A5GEeAAAALIjsANzEt2BqQnxAAAAzEZgB5YmugNLEOIBAAA4msAO5Eh0B3LxZIhPMf7KFQMAAGiPwA6UQnQHcnYrxHe//0fWzxsR/lKIBwAAqI/ADpRMdAdKs0pfb7qu+9AJ8QAAAEUT2IHaiO5ADYR4AACAAgjsQAtEd6BWQjwAAMCCBHagVaI70BIhHgAAYAICO8B/iO5A64R4AACAZxDYAR4nugPcJ8QDAAAI7AAvIroDHEaIBwAAqiawA8QQ3QFeTogHAACKJLADTEd0B4glxAMAAFkR2AHmJboDTE+IBwAAZiGwAyxPdAdYhhAPAAAcRWAHyJPoDpAPIR4AANhLYAcoh+gOkDchHgAAGiOwA5RNdAcojxAPAACVENgB6iO6A9RBiAcAgMwJ7ABtEN0B6iXEAwDAQgR2gHaJ7gBtEeIBACDY2A8XdwL7mTMGaJfoDoAQDwAABxLYAXiK6A7APkI8AADNE9gBeAnRHYBDCfEAAFRLYAcgiugOwDGEeAAAiiOwAzAl0R2AaEI8AADZENgBmJvoDsAchHgAACYnsAOQA9EdgKUI8QAAvJjADkCuRHcAciLEAwBwj8AOQElEdwByJ8QDADREYAegdKI7ACUS4gEAKiCwA1Aj0R2AWjwU4n9cR/gU4n+44gAA8xPYAWiF6A5Aza5D/Pn1zzj2w6+b0/BCPABAPIEdgJaJ7gC05iRFeCEeACCAwA4At4nuACDEAwAcRGAHgKeJ7gCwnxAPADRNYAeAlxHdAeBwQjwAUCWBHQDiiO4AcBwhHgAoisAOANMS3QEgnhAPAGRBYAeA+YnuADAPIR4AmJTADgB5EN0BYDlCPADwIgI7AORLdAeAvAjxAMAtAjsAlEV0B4D8CfEA0AiBHQDKJ7oDQJmEeAAonMAOAHUS3QGgHkI8AGRKYAeAdojuAFA3IR4AZiawA0DbRHcAaI8QDwBBBHYA4C7RHQDohHgAeJrADgAcQnQHAB4ixAPQpLEfTu/EdYEdADiY6A4APIcQD0BVbgT2m1PsK1cZAHgp0R0AOJYQD0Bxxn74uPtDYAcAoonuAMAUHgvxH9fbzaVTB2BhF4I7ADCFfzhVAGAm1yH+rQMHIAPnLgIAMAXRHQCY22snDsCSxn545QIAAFMR3QGAuYnuACzN7yIAYDKiOwAwt5OxH06dOgALEt0BgMmI7gDAEsQOAJbk9xAAMBnRHQBYgl26ACxJdAcAJiO6AwBLEN0BWNLK6QMAUxHdAYAlXDh1AJYw9oPfQQDApER3AGAJJt0BWIrVMgDApER3AGAJHusHYClu/AIAkxLdAYBFeLwfgIWYdAcAJiW6AwBLMWkIwBLOnToAMCXRHQBYiugOwKzGfvC7BwCYnOgOACzFehkA5ma1DAAwOdEdAFjKqZMHYGaiOwAwOdEdAFjKmZMHYGaiOwAwOdEdAFjM2A/iBwBz8nsHAJic6A4ALMkL7QCY08ppAwBTE90BgCWZOARgFmM/eIE3ADAL0R0AWJLoDsBc/M4BAGYhugMAS7JeBoC5+J0DAMxCdAcAlnTm9AGYiUl3AGAWojsAsKixH0QQAOZw7pQBgDmI7gDA0jzuD8Ck3OAFAOYkugMASxNCAJiaG7wAwGxEdwBgaUIIAFNzgxcAmI3oDgAsTXQHYGoXThgAmIvoDgAszYvtAJiaG7wAwGxEdwBgcWM/iCEATGLsh9Ou61ZOFwCYyz+dNACQgV10/+FCQJvSjbfX6evberv54l8FAtnnDgDMSnQHAHKw27V76UoQZeyHT+k/6luKuN8cbh7uBPaL9OfJjX+4/2r5fJiE6A4AzEp0BwByYL0M0a66rvtw/Z859sPuj6/XEV6In8cBgX0f14VoojsAMCvRHQDIgehOtH3ris5vvrhXiI/1wsB+18/1dnN177twHL9jAIBZie4AQA7OXQWC7Yvu+wjxLxAU2Pfxbgem4HcMADAr0R0AyMLYD6cmXAl0TCgX4m+YMLDv490OhBr7wWoZAGB2ojsAkIvXghtRdjdwxn74FRiHmwjxMwf2fTxVQDSrZQCA2YnuAEAuRHeifZt4rUTRIT6DwL6P6E40k+4AwOxEdwAgF6YRiTZ1dN8nyxCfaWC/Z73d2OlOtAsnCgDMTXQHAHJhGpFouQTcfSH+e4rwP9KfV+vt5ugnPVJcvw7sN0N7doF9j6/3vwVHc0MXAJid6A4A5EJ0J1rOq0rO0tffUozf+XnnhsHVnZ/ldM9/X+ae6J+C1TKE2r2gu+u6lVMFAOYmugMAuTjZBZLdCzBdEYKUGnFXe0Lhm3t/V32sliGam7kAwCL+4dgBgIwIJIRJN3B+OdFimHQnmt8pAMAiRHcAICcCCdGE3EJE7LSHO/xOAQAWIboDADnxwjuiWVlShp+tHwCT8DsFAFiE6A4A5MRUItFE9zJ4IoEp1PCCYQCgQKI7AJATU4lEs7KkDKI7ocZ+cBMXAFiM6A4A5GTlahDMpHsZRHeiuYkLACxGdAcAsjL2w4UrQpT1diO6l0F0J5pJdwBgMaI7AJAb04lE++pE8+bmCBNwAxcAWIzoDgDkRnQnmqCbNzdFmIJJdwBgMaI7AJAb04lEE93zZrUMocZ+OO267sSpAgBLEd0BgNyYdCfapRPNmpsiRDPlDgAsSnQHAHKzckUIJurmzaQ70TwxBQAsSnQHALIz9oNgQhgv6czbervxJALRPDEFACxKdAcAcnTqqhDsuwPN0s/WD4BJWC8DACxKdAcAciSYEM20e56slmEKZ04VAFiS6A4A5Eh0J5q4myfXhVBjP/j9AQAsTnQHAHJkHy/RxN08uS5EE90BgMWJ7gBAjqwGIJr1MnkS3Ynmpi0AsDjRHQDIkhUBRFpvN+JuhtbbjZshRLtwogDA0kR3ACBXphWJ9t2JZuVr6wfAJNywBQAWJ7oDALkSTohmqjovnj4g1NgPp13XnThVAGBpojsAkCvRnWgib15cD6L5vQEAZEF0BwByZb0M0UTevHjygGj2uQMAWRDdAYBcnbkyBLtyoPlYbzeXrZ8B4dysBQCyILoDANka+0FAIYzImxUvtWUK1ssAAFkQ3QGAnInuRPvpRLNgtQxT8IQUAJAF0R0AyJn9vEQTe/Ngvz6hxn4w5Q4AZEN0BwByZtKdaFbM5MF1IJroDgBkQ3QHAHImuhPNpHseXAei+X0BAGRDdAcAcnbu6hBM7F3er/V24zoQzToyACAbojsAkLWxH0wvEma93Vhrsjz73JmC9TIAQDZEdwAgd6I70X460UWJ7oQa++G067oTpwoA5EJ0BwByZ2UA0aw2WZboTjRT7gBAVkR3ACB3Jt2JJvouy00Pork5CwBkRXQHAHInuhNN9F2QvfpMwKQ7AJAV0R0AyJ2YQjST7sv53uoPzqTcnAUAsiK6AwC5O0kvyYMoovtyPGXAFM6cKgCQE9EdACiBaXfCrLebq67rfjnRRbjhQaixH+xzBwCyI7oDACUQ3Ykm/i7DPneiWS0DAGRHdAcASiCqEE10X4b1MkRzUxYAyI7oDgCUQFQhmvg7v1/r7ca5E83vBwAgO6I7AFACUYVoJt3n58yZgt8PAEB2RHcAoAQnYz+culIEEoDn58wJNfbDbvXYiVMFAHIjugMApTDNSJj1dnPlNGcnuhPN+z4AgCyJ7gBAKcQVon11orOyz51oF04UAMiR6A4AlEJ0J5oIPKP1dnPZzA/LXDwBBQBkSXQHAEphopFoovt8vrfygzIrN2MBgCyJ7gBAKcQVopm8no997kzhzKkCADkS3QGAUqxcKYKZdJ+PsybU2A+efgIAsiW6AwDFEFmItN5uhOD5eKqAaJ5+AgCyJboDACURWYj21YnOwnoZonmJKgCQLdEdACiJ6E400+7T+7Xebq5q/yGZnegOAGRLdAcASmK9DNFE9+mZcmcKojsAkC3RHQAoiUl3ognC07PPnVBjP+x+F5w4VQAgV6I7AFCSlatFMJPu03PGRHMDFgDImugOABRl7AcrBQiz3m5Muk/PGRPNqjEAIGuiOwBQGhOORPvuRKfjxgYTcPMVAMia6A4AlEZsIZr1J9NxQ4MpuPkKAGRNdAcASiO6E80k9nScLVM4c6oAQM5EdwCgNCYciSYMT8dTBIQa+8E+dwAge6I7AFAaE45EE4anc1nrD8ZiPO0EAGRPdAcAijP2g+hCGC/6nJSzJZqnnQCA7InuAECJRBeieeFnvF/r7eaqth+KxbnpCgBkT3QHAEokuhBNHI5nyp0pnDtVACB3ojsAUCKT7kSzezyeMyXU2A8++wGAIojuAECJhBeieZlqPGdKNE85AQBFEN0BgBJZL0A0gTie9TJEE90BgCKI7gBAkawZINJ6u7EKJdh6uxHdiSa6AwBFEN0BgFKJ7kT76UTDfK/k5yAvojsAUATRHQAo1YUrRzArZuKYcmcKK6cKAJRAdAcASmXSnWhWzMRxA4NQYz+40QoAFEN0BwBKJboTTSiO4wYG0ayWAQCKIboDAKU6d+UIJrrHsV6GaG60AgDFEN0BgGKN/SDCEGa93ZjOjvFzvd1c1fCDkBWT7gBAMUR3AKBkojvRfjnRo3ligCl4ugkAKIboDgCUzOQj0axFOZ4nBgjlqSYAoDSiOwBQMiGGaKL78Zwh0dxgBQCKIroDACUTYohmNcrxnCHRfNYDAEUR3QGAkgkxRDOlfaT1duMMieazHgAoiugOAJTsZOyHU1eQQILxcb6W/A9PtkR3AKAoojsAUDoxhjDr7eaq67pfTvTFrJZhCiunCgCURHQHAEonuhPNtPvLOTtCjf1w4UQBgNKI7gBA6V65ggQTjl/O2RHNjVUAoDiiOwBQOkGGaFdO9MVEd6K5sQoAFEd0BwBKJ8gQ7dKJvsjPtBMfIrmxCgAUR3QHAErnBXtE8zLQl3FuTOHcqQIApRHdAYDiedEekdbbjXj8Mp4QINTYD55kAgCKJLoDADUQZoj21Yk+m33uRLNaBgAokugOANRAdCeaaffnc2ZEE90BgCKJ7gBADayXIZqA/Ezr7cakO9F8tgMARRLdAYAamHQnmv3kz2MdD1Pw2Q4AFEl0BwBqsHIVCWbS/XmcF6HGfjj12Q4AlEp0BwCqMPaDNQSEWW83IvLzWC1DNPvcAYBiie4AQC2sISCalSmHE92JJroDAMUS3QGAWojuRLtyogcT3YkmugMAxRLdAYBaCDREE5IP83O93bhBQTQ3UgGAYonuAEAtBBqiie6Hsf+eKZw7VQCgVKI7AFCLM1eSYGLyYS5L+IekHGM/eHIJACia6A4AVEOoIdJ6uzHpfhjnRDRPLgEARRPdAYCaCDVE++5EnyS6E80NVACgaKI7AFAToYZoVsw8Yb3dOCOiXThRAKBkojsAUBPRnWimuB/39dG/Ci/jqSUAoGiiOwBQE6GGaKL745wPocZ+OO26buVUAYCSie4AQE3OXE2CXTnQR1ktQzRPLAEAxRPdAYCqjP1g2p0w6+3m0mk+yqQ70UR3AKB4ojsAUBvRnWg/neh+bkowAdEdACie6A4A1ObCFSWYFSr7uRnBFNw4BQCKJ7oDALURbIhmmns/q2WYwrlTBQBKJ7oDALUR3Ylm0n0/0Z1QYz9YLQMAVEF0BwBqY0qSaKL7fqI70dw0BQCqILoDANUZ+0G4IYyXhT5IdCeaSXcAoAqiOwBQI9GdaF4aesd6u/EEANG8CBsAqILoDgDUSLghmsB829d734HjuWEKAFRBdAcAaiTcEM2KmdusliHU2A+nXdetnCoAUAPRHQCokehOtCsneovJf6LZ5w4AVEN0BwBqJN4QzWT3bc6DaNaCAQDVEN0BgBqdpFUFEEVkvmG93Vi3QzRPKAEA1RDdAYBamXYnzHq72a2X+eVE//Lz3nfgeD6zAYBqiO4AQK0EHKKZdv/NOTCFM6cKANRCdAcAamVVAdHE5t+cA6HGfnCTFACoiugOANRKxCHaDyf6F9GdaD6vN3VRxQAAIABJREFUAYCqiO4AQK1EHKKJzb85B6J5MgkAqIroDgDU6mTsh1NXl0Bi8++Xypr4J9qFEwUAaiK6AwA1M+1OmPV2c+U0u6/3vgPH81kNAFRFdAcAamZlAdFaj86m/QmVnkg6caoAQE1EdwCgZqI70VpfrSK6E82UOwBQHdEdAKiZPcFEaz26t/7zE8/nNABQHdEdAKiZSXeiXbZ8ouvtpumfn0n4nAYAqiO6AwA1W7m6BGt50vv7ve/A8ayXAQCqI7oDAFUb+8HqAsKst5uWo7vVMkzhzKkCALUR3QGA2lldQLSvjZ6ol6gSauwHU+4AQJVEdwCgdqI70Vqd+LbPnWiiOwBQJdEdAKid9TJEazW6Wy9DNDdFAYAqie4AQO1EHaK1OPH9q/F99kzDTVEAoEqiOwBQu5UrTLCrBg/UPnemYL0MAFAl0R0AqJ6X9RFpvd20GKBFd0KN/XDadd2JUwUAaiS6AwAtsGKGaN8bO1HRnWhuhgIA1RLdAYAWiDtEa22/uX3uRLPPHQColugOALRAdCdaU5Pf6+2mxZfHMi1PIAEA1RLdAYAWiDtEaym6t7ZKh3m4GQoAVEt0BwBacOYqE6yldStWyzAFn8sAQLVEdwCgCWM/mKokzHq7aWnS3UtUCTX2g33uAEDVRHcAoBVWzBCtlbUr9rkTzecxAFA10R0AaIVJd6K1snbFehmi+TwGAKomugMArTBZSbQW1q78Wm83ojvRRHcAoGqiOwDQCtGdaC3EaPvcmYLoDgBUTXQHAFpx7koTTHSHZxr7YXcD9MS5AQA1E90BgGak2AMh1ttNCy8YFd2J5nMYAKie6A4AtETsIdrPyk/UPneiXThRAKB2ojsA0BKxh2hVR+lGpvmZl33uAED1RHcAoCUm3YlWc5T+fu87cDyfwwBA9UR3AKAlYg/Rap50t8+dKZw5VQCgdqI7ANCSc1ebYDVHd/vcCTX2gxVfAEATRHcAoCljP5h2J0zlO8/tcyeaz18AoAmiOwDQGtGHaL8qPVHrZYjmJaoAQBNEdwCgNaIP0WqM07/W283Vve/CcXz+AgBNEN0BgNaYdCdajdHdlDtTEN0BgCaI7gBAa0QfotX4wlH73AmV3qdx4lQBgBaI7gBAa0R3otU4FV7jjQSW5SkjAKAZojsA0JqTsR9OXXUCWS8DT7twRgBAK0R3AKBFpt0Jk144+qumE11vN6I70XzuAgDNEN0BgBaJP0SrKVJ/v/cdOJ71MgBAM0R3AKBF4g/RaoruptyZwplTBQBaIboDAC0y6U60ml486iWqhBr7wT53AKApojsA0CKT7kSraTr88t534Dg+cwGApojuAECLVq46wWqaDrdehmieLgIAmiK6AwBNsu6ASOvtppbo/mu93Vzd+y4cR3QHAJoiugMArbLugGhfKzhRU+5M4dypAgAtEd0BgFaJ7kSrYdrdPndCjf3gsxYAaI7oDgC0ynoZotUQ3WvaTU8erJYBAJojugMArTJ9SbQapsStlyGa6A4ANEd0BwBatXLlCVb8lPh6uxHdiSa6AwDNEd0BgGaN/WDFDGHW203p0f37ve/A8UR3AKA5ojsA0DIrZoj2teATNeXOFDxVBAA0R3QHAFomuhPtquAT9RJVQnmaCABolegOALTM2gOilTwtXsOLYMmLz1gAoEmiOwDQMpPuRCs5ulsvQzSfsQBAk0R3AKBlZ64+wUpd0fJzvd2UvBqHPJl0BwCaJLoDAE0b+0EUIsx6uyl1Wtw+d6Zw7lQBgBaJ7gBA66w/INr3Ak/UPndCjf3gsxUAaJboDgC0zqQ70UqcGrfPnWg+WwGAZonuAEDrhCGilRiwrZchms9WAKBZojsA0DorEIhWXHQveBc9+RLdAYBmie4AQOvOWj8AwpU2Nf713nfgeKI7ANAs0R0AaN7YD+IQYQqcGrdahimsnCoA0CrRHQCg606dAcF+FnSgVssQauyHCycKALRMdAcA6DqBiGglTY+L7kTz9BAA0DTRHQDAy1SJd1nQmYruRPOZCgA0TXQHABCIiFfKpPvP9XZzde+7cByT7gBA00R3AICuO3cGBCslunuJKlPwmQoANE10BwD4/eI/0+6EWW83payXKWkNDgXwWQoAILoDAFwTioj2s4ATtc+daFbLAADNE90BAH67cA4EK2F1i/UyRBPdAYDmie4AAL+ZdCda9qtb1tuNSXeiuYEJADRPdAcA+E10J1ruU+Rf730HjuezFABonugOAPCblQhEyz26Wy1DqLEfTruuWzlVAKB1ojsAwG8nKRhBlNxXt4juRHPzEgBoXie6AwDcIhgRZr3dXGV+mva5E81nKADQvE50BwC4RTAiWs5703O/KUB5fIYCAM3rRHcAgFu8AJCWmHQnms9QAKB5negOAHCLKU2iZRu2C1h/Q3nOXTMAANEdAOAm0Z1owjZNGPvB5ycAQCK6AwD8x8nYD6fOgwbkvGueMlktAwCQiO4AALeZ1iSSSXda4bMTACAR3QEAbhOOiORlpbTiwpUGAPhNdAcAuM16GYDns14GACAR3QEAbjOtCfAM6V0YK2cGAPDbP50DAMAtpjWJtFsv818Znqhd80SylgsA4AbRHQDgNtOahFlvN7u4felEqZzoDgBwg/UyAAB3jP1gxQzA4UR3AIAbRHcAgPusmAE4nM9MAIAbRHcAgPsEJIDDnTsrAID/EN0BAO6zXgbgAGM/WC0DAHCH6A4AcJ9Jd4DD+LwEALhDdAcAuG917zsA7GPSHQDgDtEdAACAlzLpDgBwh+gOAADAS4nuAAB3iO4AAHt4OSAAAAAvIboDAOx3uve7AAAA8AjRHQAAgJc6d3IAALeJ7gAA+1kvAwAAwLOJ7gAA+1kvA/CIsR98TgIA7CG6AwDsJyYBPM4TQQAAe4juAAD7iUkAAAA8m+gOAADAS1w4NQCA+0R3AID9zvd+FwAAAB4hugMAAPASJt0BAPYQ3QEAHjD2g6AEAADAs4juAAAPO33wrwBgDRcAwB6iOwDAw14/+FcAGjb2wyvXHwBgP9EdAOBhojvAfqI7AMADRHcAgIeJSgD7uSkJAPAA0R0A4GFnD/4VgLaJ7gAADxDdAQAeMfaDsARwnyeBAAAeILoDADxOdAe47/zedwAA+IvoDgDwONEd4AZPAAEAPE50BwB4nLgEcJvPRQCAR4juAACPs0IB4DbRHQDgEaI7AMATrFIAuOXCcQAAPEx0BwB4msAE8B9nzgIA4GGiOwDA00y6A/x+8sdNSACAJ4juAABPE5kAfvN5CADwBNEdAOBpq7EfXjknANEdAOApojsAwGGEJoCuO3cGAACPE90BAA4jugNNs88dAOAwojsAwGHEJqB1PgcBAA4gugMAHGa31/21swIa9tbFBwB4mugOAHA4U55Ak8Z+OO267szVBwB4mugOAHA4U55Aq3z+AQAcSHQHADjceZr2BGiNJ30AAA4kugMAPI9pT6BFPvsAAA4kugMAPI/wBDRl7Ifd596Jqw4AcBjRHQDgeaxYAFrjZiMAwDOI7gAAz3OSpj4BWuEzDwDgGUR3AIDnE6CAJlgtAwDwfKI7AMDzvR374dS5AQ1wkxEA4JlEdwCA5zsRooBG+KwDAHgm0R0A4GWEKKBqYz+MVssAADyf6A4A8DJvxn545eyAirm5CADwAqI7AMDLCVJAldJNxTeuLgDA84nuAAAv997ZAZVyUxEA4IVEdwCAl1uN/XDh/IAKuakIAPBCojsAwHFG5wfUJN1MXLmoAAAvI7oDABzn3dgPp84QqIgpdwCAI4juAADHE6iAKniBKgDA8UR3AIDjWTED1MLnGQDAkUR3AIDj7V6oKlQBRUursjy5AwBwJNEdACCGUAWU7m3XdSeuIgDAcUR3AIAYZ2M/XDhLoGAfXTwAgOOJ7gAAcQQroEhpRdbK1QMAOJ7oDgAQ59y0O1AoK7IAAIKI7gAAsYQroCjpZuGZqwYAEEN0BwCI9Wbsh1fOFCiI1VgAAIFEdwCAeJ+cKVCCNOV+7mIBAMQR3QEA4r2x2x0ohCl3AIBgojsAwDSELCBrYz+MptwBAOKJ7gAA0zg37Q5kzs1BAIAJiO4AANMRtIAspSn3lasDABBPdAcAmM55ClsA2Rj74dQLnwEApiO6AwBM62MKXAC5eN913YmrAQAwDdEdAGBaqxS4ABY39sOrrus+uBIAANMR3QEApvc+hS6ApVkrAwAwMdEdAGB6J0IXsLSxHy66rnvjQgAATEt0BwCYx5sUvACWsnbyAADTE90BAOYjeAGLGPvhY3rHBAAAExPdAQDms0rhC2A2Xp4KADAv0R0AYF4fxn547cyBGXnKBgBgRqI7AMD8BDBgFmM/vO+67txpAwDMR3QHAJjfmTUzwNTSWhmfNQAAMxPdAQCWYc0MMLXdUzUnThkAYF6iOwDAcqyZASZhrQwAwHJEdwCA5VgzA4RLT9H4bAEAWIjoDgCwrN2amQvXAAhkrQwAwIJEdwCA5a3Hfjh1HYBjjf3wafcUjYMEAFiO6A4AsLyV/e7AscZ+eNt13R8OEgBgWaI7AEAe3qQXHwI829gPr9y8AwDIg+gOAJCPP9MLEAGe64s97gAAeRDdAQDycmm/O/Ac9rgDAORFdAcAyMtJmlgFeNLYD6M97gAAeRHdAQDyc54mVwEelNZR+awAAMiM6A4AkKc/0gQrwD1pDdWlPe4AAPkR3QEA8vXZi1WBuwR3AIC8ie4AAHm7FN6BO7w4FQAgY6I7AEDedpOs6zTZCjQuve/hXevnAACQM9EdACB/Z2niXXiHhqX3PPzh3wEAgLyJ7gAAZThLKyWABqXg/tm1BwDIn+gOAFCOd2M/rF0vaEt6r4ObbgAAhRDdAQDKIrxDQ1Jwv0zvdwAAoACiOwBAeXbh/b3rBnUT3AEAyiS6AwCU6c+04xmokOAOAFAu0R0AoFyfhXeoj+AOAFA20R0AoGzCO1REcAcAKJ/oDgBQPuEdKiC4AwDUQXQHAKjDZy9XhXIJ7gAA9RDdAQDqsXu56tr1hLII7gAAdRHdAQDq8k54h3KM/XAhuAMA1EV0BwCoz1/hfeyHU9cW8pXexfBvwR0AoC6iOwBAnd7tpmeFd8hTegfDZ5cHAKA+ojsAQL3OUnh/7RpDPtIKqD9dEgCAOonuAAB1uw7vF64zLGv35MnYD5fpSRQAAColugMA1G+3L/rfaX80sID0xMkuuJ87fwCAuonuAADt+JzWWgAzSk+aXKYnTwAAqJzoDgDQlndjP3zzglWYx9gPH3dPmqQnTgAAaIDoDgDQnt207Q973mE6aX/7l67rPjhmAIC2iO4AAG263vP+3vWHWGl/+7eu6944WgCA9ojuAABt+3M3jWvdDMRIN7L+t+u6lSMFAGiT6A4AwBvrZuA4N9bJ/OkoAQDaJroDANDdWDfzyWnA86QbVj+skwEAYOef974DAEDL/kgBcVxvN9/8mwAPS2uZPu7+e/Pg3wQAQHNMugMAcNfZbif12A8f7/0V4C/p5tQ3wR0AgLtMugMA8JAPYz+8NfUO/2G6HQCAp5h0BwDgMddT759SbIRmpZtQptsBAHiU6A4AwCF2kfFbio7QlLEfXo398KXrun91Xbdy9QEAeIzoDgDAoXax8V9jP1zuIqRTowXp3Qa76fY3LjgAAIew0x0AgOc677ru/8Z++H9d131abzdXTpDapKc6PplsBwDguUy6AwDwUh+6rvsx9sPoBKnF2A+vd09zWCUDAMBLie4AABzjpOu6z2M/7OL7hZOkVGlv+3r34uD0NAcAALyI9TIAAETYTQT/e+yHr13XfVxvN5dOlRKM/XC6+3c2vSwYAACOJroDABDpXHynBCm2v09fJy4aAABRRHcAAKYgvpOl3RqZ3R9iOwAAUxHdAQCY0s34/mm93Xxx2iwhxfbdGpl3LgAAAFMS3QEAmMMuvp+P/fAzhc8v6+3myskztfSC391U+xuHDQDAHER3AADmtHvh6ufd1PvYD+s0/f7DFSDa2A/XK2TOHC4AAHMS3QEAWMJul/Yfu6+xH/6n67q11TMcK62QeZ92ttvXDgDAIkR3AACWtlv78Satnvli+p3nGPvhtOu6tym0nzs8AACWJroDAJCL1Y3p9++7+G73Ow8Z++Ftiu1vTbUDAJAT0R0AgBydpd3vn9P6mS8CPGM/vE4T7dbHAACQLdEdAIDcvUlfNwP8pRU0bTDRDgBAaUR3AABKch3gu7SC5jJNwF+6inVIL0O9SJH9TevnAQBAeUR3AABKdZa+djvgf6UAf5mm4L+5qmVIL0K9uBHaV62fCQAAZRPdAQCowcmdKfjrCP8tRXiT8JlIe9lfp8j+Ot04AQCAaojuAADU6GaE/zD2w+5H/J4i/N9fXsw6rRuB/dWNyG4vOwAAVRPdAQBoxfU6mnfXP+/YDz+7rvuRIvzff3pJ6+HSepjrsP7qxv9tgh0AgCaJ7gAAtGyVvs5vnkGajL8O8lcpxnfp//87yNe8tia90PTVjW9dpD+vv38qrAMAwH2iOwAA7Le68VLPN/v+jhTn7/p1I9KX4JWXlwIAQBzRHQAAYp3cnZwHAADa8Q/XGgAAAAAAYojuAAAAAAAQRHQHAAAAAIAgojsAAAAAAAQR3QEAAAAAIIjoDgAAAAAAQUR3AAAAAAAIIroDAAAAAEAQ0R0AAAAAAIKI7gAAAAAAEER0BwAAAACAIKI7AAAAAAAEEd0BAAAAACCI6A4AAAAAAEFEdwAAAAAACCK6AwAAAABAENEdAAAAAACCiO4AAAAAABBEdAcAAAAAgCCiOwAAAAAABBHdAQAAAAAgiOgOAAAAAABBRHcAAAAAAAgiugMAAAAAQBDRHQAAAAAAgojuAAAAAAAQRHQHAAAAAIAgojsAAAAAAAQR3QEAAAAAIIjoDgAAAAAAQUR3AAAAAAAIIroDAAAAAEAQ0R0AAAAAAIKI7gAAAAAAEER0BwAAAACAIKI7AAAAAAAEEd0BAAAAACCI6A4AAAAAAEFEdwAAAAAACCK6AwAAAABAENEdAAAAAACCiO4AAAAAABBEdAcAAAAAgCCiOwAAAAAABBHdAQAAAAAgiOgOAAAAAABBRHcAAAAAAAgiugMAAAAAQBDRHQAAAAAAgojuAAAAAAAQRHQHAAAAAIAgojsAAAAAAAQR3QEAAAAAIIjoDgAAAAAAQUR3AAAAAAAIIroDAAAAAEAQ0R0AAAAAAIKI7gAAAAAAEER0BwAAAACAIKI7AAAAAAAEEd0BAAAAACCI6A4AAAAAAEFEdwAAAAAACCK6AwAAAABAENEdAAAAAACCiO4AAAAAABBEdAcAAAAAgCCiOwAAAAAABBHdAQAAAAAgiOgO/7+9u7mN48oCMPo8CVgZ2EAHYGZgzboXYgYuRzCaCCxFMFIEU4rA5KLWQ2ZABlAAmQEZgQblecS0VRRNipfd7+ccwIDdxUV3lVdf374PAAAAACCI6A4AAAAAAEFEdwAAAAAAanZW0nsX3QEAAAAAIIjoDgAAAAAAQUqL7lerVwAAAAAAoBJFRfdxnkR3AAAAAACqZb0MAAAAAAAEEd0BAAAAAKhZURtURHcAAAAAAGomuv+F84cvAwAAAABAmUy6AwAAAABAENEdAAAAAIBqjfN0VtJ7LzG6X6xeAQAAAACACpQY3W9WrwAAAAAAwNrt6pUDE90BAAAAAKhVcZtTrJcBAAAAAIAgDlIFAAAAAKBWRR2imkqM7qWdNAsAAAAAAI9V6qR7ccvvAQAAAAAojkn3R7LXHQAAAACA6pQa3a9WrwAAAAAAwI4S15WL7gAAAAAA1Oi6xPdsvQwAAAAAADUqcnjbpDsAAAAAADUqcni7yOg+zpNJdwAAAAAAHmLS/YkuC35vAAAAAAAclkn3JzLtDgAAAADAvcZ5Orvv9UMrObrb6w4AAAAAwH2K3ZRScnQv8lsKAAAAAAAOrtihbetlAAAAAACoTbFD28VG93GebhymCgAAAADAPYod2i550j2ZdgcAAAAA4EulHqKaKoju9roDAAAAALDrvOS7YdIdAAAAAICaFN2Ni47u4zwtN+92dQEAAAAAgF4VvSGl9En3ZMUMAAAAAAA7RPdnEt0BAAAAAFhcjvN0U/KdqCG6n6xeAQAAAACgR8UPaRcf3cd5ukopXa8uAAAAAADQG9E9iBUzAAAAAACdG+ep+M0otUR3K2YAAAAAAPp2WsOnN+kOAAAAAEANqujEVUT3fBptFd9iAAAAAADwIqrYiFLLpHsy7Q4AAAAA0K3LcZ6uavjwNUV3e90BAAAAAPpUTR+uJrrnbzEuVxcAAAAAAGid6P5CxsreLwAAAAAAz3M9ztNFLfewtuhuxQwAAAAAQF+q6sJVRXcrZgAAAAAAuvOhpg9c26R7qu0GAwAAAADwzS7zMHY1aozuVswAAAAAAPShunM+q4vu4zzdpJROVxcAAAAAAGhNdUPYNU66pxq/3QAAAAAA4ElOa1stk2qN7uM8Ld9uXK8uAAAAAADQiiqHr2uddE+m3QEAAAAAmnWdh6+rI7oDAAAAAFCaavtvtdE97/JxoCoAAAAAQHtE9wMx7Q4AAAAA0JYqD1C9U3V0d6AqAAAAAEBzPtT8gWqfdF+8W70CAAAAAECNlgNUz2p+ci1E92Xa/Xb1KgAAAAAAtal+yLr66D7O003tPzcAAAAAAOCPKffqz/FsYdI9ie4AAAAAANWrPrinVqJ7nnb/tLoAAAAAAEANblsZrm5l0j05UBUAAAAAoFof8nB19ZqJ7uM8XZl2BwAAAACoTjNT7qmxSfdk2h0AAAAAoDrNTLmn1qK7aXcAAAAAgKo0NeWeGpx0T6bdAQAAAACq0dSUe2oxuudp94+rCwAAAAAAlKS5KffU6KR7ytPut6tXAQAAAAAoxbvWptxTq9E9P6jmviEBAAAAAGjE9ThPTTbcVifdU47u16tXAQAAAAA4tLetPoFmo3uedneoKgAAAABAWc7HeTpp9Zm0POm+hPdxeYCrCwAAAAAAHEqzU+6p9eiemXYHAAAAACjDp3GeLlp+Fs1H93GezpYHuboAAAAAAMA+3bY+5Z46mXRP+UHerl4FAAAAAGBf3uWzOJvWRXTPD7L5b1AAAAAAAAq1HJ76oYeH08uku0NVAQAAAAAOp5uh6G6iezZYMwMAAAAAsFfvWz88dVdX0X2cp6uUUhc/YQAAAAAAKMDlOE/venoQvU26p/yAL1cXAAAAAACINvR2R7uL7pk1MwAAAAAAL6urtTJ3vvv8+fPqxR4Mm+2yuP9fXX54AAAAAICXtayVOerxHvc66b6smVl2u5+vLgAAAAAA8FzdrZW50210z46tmQEAAAAACPXPHtfK3Ok6uo/zdNPzNy4AAAAAAMFO85aRbvU+6b6E95OU0sfVBQAAAAAAnmLZKtL9kHO3B6l+adhsl587/LS6AAAAAADAY/x9nKez3u9U95PuO+x3BwAAAAD4Nu8F9/8x6b5j2GyX8P776gIAAAAAAF+z7HE//sq17ph035H3u79fXQAAAAAA4D6X9rj/mUn3ewyb7RLf36yvAAAAAACQLeu6X4/zdOGG/J9J9/sN+RsaAAAAAADuNwjua6L7PcZ5usnh3cGqAAAAAABr7/O6br5gvcwDhs32dUrpP1//CwAAAACA7nwa58ke968Q3f/CsNku//P8++G/AgAAAADowuU4T0ce9ddZL/MXxnkal59KPPxXAAAAAADNW87BfO0xP8yk+yMNm+0S33+p4s0CAAAAAMRazr88Gufpyn19mEn3R8o7ik6reLMAAAAAAHGW4P5acH8c0f1phvwTCgAAAACAHtwF9wtP+3FE9ycY5+km7ywS3gEAAACAHgyC+9OI7k8kvAMAAAAAnfh1nKcTD/tpRPdvILwDAAAAAI1bgvvoIT+d6P6NhHcAAAAAoFGC+zOI7s8gvAMAAAAAjRHcn0l0fybhHQAAAABohOAeQHQPILwDAAAAAJUT3IN89/nz5yY+SAmGzfZVSukspfRT7/cCAAAAAKjC7TJQPM7ThccVw6R7oJ2J90/NfCgAAAAAoFWC+wsw6f5Chs12+SnGL01+OAAAAACgdtcppWPBPZ5J9xcyztOQUnrf5IcDAAAAAGq2nE15JLi/DNH9BY3z9G45gKDZDwgAAAAA1OY0r5S58eRehvUyezBstkf5gNXvm/+wAAAAAECpPo7z9NbTeVkm3fcg/0zjKP9sAwAAAABg334V3PfDpPseDZvtq6XBp5TedPOhAQAAAIBDus3rZOxv3xPR/QCGzXbZ9f5bdx8cAAAAANinS/vb9090P5Bhs32dUjqx5x0AAAAAeAH2tx+Ine4HMs7TmT3vAAAAAECwW/vbD8ukewGGzfZDSukfvd8HAAAAAOBZlgHfwf72wxLdC2HdDAAAAADwDNbJFEJ0L8iw2b5aNs+klN70fi8AAAAAgEdZ1skc53XWFEB0L9Cw2S7fSL0z9Q4AAAAAPOA0r5O5+fqfsG+ie6GGzfbHPPX+c+/3AgAAAAD4k9sc20/clvKI7oUz9Q4AAAAA7DDdXjjRvQJ56v2DXe8AAAAA0K3rlNJb0+3lE90rMmy2xzm+/9D7vQAAAACAjnxctmGYbq+D6F6ZYbN9tXyjlVL6rfd7AQAAAACNO8/T7RcedD1E90o5aBUAAAAAmnWbY/voEddHdK/csNm+zvHdyhkAAAAAqN/7ZcW0VTL1Et0bMWy2y8qZdyml73u/FwAAAABQoU95b/uVh1c30b0hO/ve34rvAAAAAFAFe9sbI7o3SHwHAAAAgOKd58n2M4+qLaJ7w8R3AAAAACiO2N440b0D4jsAAAAAHJzY3gnRvSM5vg85vv/Q+/0AAAAAgD1wQGpnRPdODZvtkAP8z73fCwAAAAAIdptS+pBSGsX2/ojunRs226M8+f5L7/cCAAAAAJ7pcont4zyNbmRouxS6AAAGpUlEQVS/RHf+YPUMAAAAAHyTZar9JMf2C7cQ0Z2Vnen3YwevAgAAAMC9loNRl4n2k3Gebu77A/okuvOgYbM9zhPwbx76OwAAAADowOVOaLernXuJ7jxKXj9znP8R4AEAAADohdDOk4jufJM8AX9sBQ0AAAAADTrPe9qFdp5MdOfZ8g74uwD/kzsKAAAAQGWuU0pnObSf2dHOc4juhMpraF7v/CPCAwAAAFCa2xzZz0yzE01050XlCH+0E+GPrKMBAAAAYM8uc2C/yJPsIjsvRnRn74bN9scc3+9i/PLfP3gSAAAAAAQ4z3F9CesX4zyduansk+hOMYbN9i7A30X5ZUr+Z08IAAAAgC8sk+s3Oa7f5Cn2KxPslEB0pwr5sNZXO1E+7YT5OwI9AAAAQL3uQvqds3v+/cIhp5ROdAcAAAAAgCB/cyMBAAAAACCG6A4AAAAAAEFEdwAAAAAACCK6AwAAAABAENEdAAAAAACCiO4AAAAAABBEdAcAAAAAgCCiOwAAAAAABBHdAQAAAAAgiOgOAAAAAABBRHcAAAAAAAgiugMAAAAAQBDRHQAAAAAAgojuAAAAAAAQRHQHAAAAAIAgojsAAAAAAAQR3QEAAAAAIIjoDgAAAAAAQUR3AAAAAAAIIroDAAAAAEAQ0R0AAAAAAIKI7gAAAAAAEER0BwAAAACAIKI7AAAAAAAEEd0BAAAAACCI6A4AAAAAAEFEdwAAAAAACCK6AwAAAABAENEdAAAAAACCiO4AAAAAABBEdAcAAAAAgCCiOwAAAAAABBHdAQAAAAAgiOgOAAAAAABBRHcAAAAAAAgiugMAAAAAQBDRHQAAAAAAgojuAAAAAAAQRHQHAAAAAIAgojsAAAAAAAQR3QEAAAAAIIjoDgAAAAAAQUR3AAAAAAAIIroDAAAAAEAQ0R0AAAAAAIKI7gAAAAAAEER0BwAAAACAIKI7AAAAAAAEEd0BAAAAACCI6A4AAAAAAEFEdwAAAAAACCK6AwAAAABAENEdAAAAAACCiO4AAAAAABBEdAcAAAAAgCCiOwAAAAAABBHdAQAAAAAgiOgOAAAAAABBRHcAAAAAAAgiugMAAAAAQBDRHQAAAAAAgojuAAAAAAAQRHQHAAAAAIAgojsAAAAAAAQR3QEAAAAAIIjoDgAAAAAAQUR3AAAAAAAIIroDAAAAAEAQ0R0AAAAAAIKI7gAAAAAAEER0BwAAAACAIKI7AAAAAAAEEd0BAAAAACCI6A4AAAAAAEFEdwAAAAAACCK6AwAAAABAENEdAAAAAACCiO4AAAAAABBEdAcAAAAAgCCiOwAAAAAABBHdAQAAAAAgiOgOAAAAAABBRHcAAAAAAAgiugMAAAAAQBDRHQAAAAAAgojuAAAAAAAQRHQHAAAAAIAgojsAAAAAAAQR3QEAAAAAIIjoDgAAAAAAQUR3AAAAAAAIIroDAAAAAEAQ0R0AAAAAAIKI7gAAAAAAEER0BwAAAACAIKI7AAAAAAAEEd0BAAAAACCI6A4AAAAAAEFEdwAAAAAACCK6AwAAAABAENEdAAAAAACCiO4AAAAAABBEdAcAAAAAgCCiOwAAAAAABBHdAQAAAAAgiOgOAAAAAABBRHcAAAAAAAgiugMAAAAAQBDRHQAAAAAAgojuAAAAAAAQRHQHAAAAAIAgojsAAAAAAAQR3QEAAAAAIIjoDgAAAAAAQUR3AAAAAAAIIroDAAAAAEAQ0R0AAAAAAIKI7gAAAAAAEER0BwAAAACAIKI7AAAAAAAEEd0BAAAAACCI6A4AAAAAAEFEdwAAAAAACCK6AwAAAABAENEdAAAAAACCiO4AAAAAABBEdAcAAAAAgCCiOwAAAAAABBHdAQAAAAAgiOgOAAAAAABBRHcAAAAAAAgiugMAAAAAQBDRHQAAAAAAgojuAAAAAAAQRHQHAAAAAIAgojsAAAAAAAQR3QEAAAAAIIjoDgAAAAAAQUR3AAAAAAAIIroDAAAAAEAQ0R0AAAAAAIKI7gAAAAAAEER0BwAAAACAIKI7AAAAAAAEEd0BAAAAACCI6A4AAAAAAEFEdwAAAAAACCK6AwAAAABAENEdAAAAAACCiO4AAAAAABBEdAcAAAAAgCCiOwAAAAAABBHdAQAAAAAgiOgOAAAAAABBRHcAAAAAAAgiugMAAAAAQBDRHQAAAAAAgojuAAAAAAAQRHQHAAAAAIAgojsAAAAAAAQR3QEAAAAAIIjoDgAAAAAAQUR3AAAAAAAIIroDAAAAAECElNJ/ARaZZmDRzP1IAAAAAElFTkSuQmCC;" vertex="1" parent="1">
          <mxGeometry x="760.42" y="1281.92" width="39.58" height="39.58" as="geometry" />
        </mxCell>
        <mxCell id="JRrbheT3QAUAnlSYt-7b-150" value="longhorn&lt;br&gt;v1.5.3" style="text;html=1;strokeColor=none;fillColor=none;align=center;verticalAlign=middle;whiteSpace=wrap;rounded=0;fontStyle=1" vertex="1" parent="1">
          <mxGeometry x="468.82" y="1280" width="57" height="30" as="geometry" />
        </mxCell>
        <mxCell id="JRrbheT3QAUAnlSYt-7b-151" value="helm v3.13.1" style="text;html=1;strokeColor=none;fillColor=none;align=center;verticalAlign=middle;whiteSpace=wrap;rounded=0;fontStyle=1" vertex="1" parent="1">
          <mxGeometry x="385.5" y="1332" width="57" height="30" as="geometry" />
        </mxCell>
        <mxCell id="JRrbheT3QAUAnlSYt-7b-153" value="default-disk ~30G&lt;br&gt;&lt;font color=&quot;#0b9c3d&quot;&gt;Schedulable&lt;/font&gt;" style="shadow=0;dashed=0;html=1;labelPosition=center;verticalLabelPosition=bottom;verticalAlign=top;align=center;outlineConnect=0;shape=mxgraph.veeam.3d.datastore_volume;" vertex="1" parent="1">
          <mxGeometry x="608.71" y="1330" width="54" height="34" as="geometry" />
        </mxCell>
        <mxCell id="JRrbheT3QAUAnlSYt-7b-155" value="default-disk ~30G&lt;br&gt;&lt;font color=&quot;#0b9c3d&quot;&gt;Schedulable&lt;/font&gt;" style="shadow=0;dashed=0;html=1;labelPosition=center;verticalLabelPosition=bottom;verticalAlign=top;align=center;outlineConnect=0;shape=mxgraph.veeam.3d.datastore_volume;" vertex="1" parent="1">
          <mxGeometry x="719.35" y="1330" width="54" height="34" as="geometry" />
        </mxCell>
        <mxCell id="JRrbheT3QAUAnlSYt-7b-156" value="default-disk ~30G&lt;br&gt;&lt;font color=&quot;#0b9c3d&quot;&gt;Schedulable&lt;/font&gt;" style="shadow=0;dashed=0;html=1;labelPosition=center;verticalLabelPosition=bottom;verticalAlign=top;align=center;outlineConnect=0;shape=mxgraph.veeam.3d.datastore_volume;" vertex="1" parent="1">
          <mxGeometry x="499.35" y="1330" width="54" height="34" as="geometry" />
        </mxCell>
        <mxCell id="JRrbheT3QAUAnlSYt-7b-158" value="" style="endArrow=classic;html=1;rounded=0;entryX=1;entryY=0.5;entryDx=0;entryDy=0;exitX=0;exitY=0.5;exitDx=0;exitDy=0;startArrow=classicThin;startFill=1;" edge="1" parent="1" source="JRrbheT3QAUAnlSYt-7b-157" target="JRrbheT3QAUAnlSYt-7b-128">
          <mxGeometry width="50" height="50" relative="1" as="geometry">
            <mxPoint x="400" y="1400" as="sourcePoint" />
            <mxPoint x="450" y="1350" as="targetPoint" />
          </mxGeometry>
        </mxCell>
        <mxCell id="JRrbheT3QAUAnlSYt-7b-161" value="" style="endArrow=none;dashed=1;html=1;rounded=0;entryX=0.5;entryY=1;entryDx=0;entryDy=0;exitX=0.5;exitY=0;exitDx=0;exitDy=0;" edge="1" parent="1" source="JRrbheT3QAUAnlSYt-7b-162" target="JRrbheT3QAUAnlSYt-7b-157">
          <mxGeometry width="50" height="50" relative="1" as="geometry">
            <mxPoint x="910" y="1340" as="sourcePoint" />
            <mxPoint x="620" y="1580" as="targetPoint" />
          </mxGeometry>
        </mxCell>
        <mxCell id="JRrbheT3QAUAnlSYt-7b-162" value="" style="shape=image;html=1;verticalAlign=top;verticalLabelPosition=bottom;labelBackgroundColor=#ffffff;imageAspect=0;aspect=fixed;image=https://cdn0.iconfinder.com/data/icons/glyphpack/60/backup-128.png" vertex="1" parent="1">
          <mxGeometry x="607.35" y="1431" width="58" height="58" as="geometry" />
        </mxCell>
        <mxCell id="JRrbheT3QAUAnlSYt-7b-163" value="" style="shadow=0;dashed=0;html=1;strokeColor=none;fillColor=#4495D1;labelPosition=center;verticalLabelPosition=bottom;verticalAlign=top;align=center;outlineConnect=0;shape=mxgraph.veeam.remote_repository;" vertex="1" parent="1">
          <mxGeometry x="611.91" y="1570" width="47.6" height="46.4" as="geometry" />
        </mxCell>
        <mxCell id="JRrbheT3QAUAnlSYt-7b-164" value="nfs://192.168.56.200:/var/nfs/longhorn" style="text;html=1;strokeColor=none;fillColor=none;align=center;verticalAlign=middle;whiteSpace=wrap;rounded=0;" vertex="1" parent="1">
          <mxGeometry x="529.85" y="1620" width="213" height="30" as="geometry" />
        </mxCell>
        <mxCell id="JRrbheT3QAUAnlSYt-7b-165" value="" style="endArrow=classicThin;html=1;rounded=0;exitX=0.5;exitY=1;exitDx=0;exitDy=0;endFill=1;startArrow=classicThin;startFill=1;" edge="1" parent="1" source="JRrbheT3QAUAnlSYt-7b-162" target="JRrbheT3QAUAnlSYt-7b-163">
          <mxGeometry width="50" height="50" relative="1" as="geometry">
            <mxPoint x="540" y="1590" as="sourcePoint" />
            <mxPoint x="590" y="1540" as="targetPoint" />
          </mxGeometry>
        </mxCell>
        <mxCell id="JRrbheT3QAUAnlSYt-7b-166" value="Recurring Jobs Schedule&lt;br&gt;+&lt;br&gt;Restore Backup" style="text;html=1;strokeColor=none;fillColor=none;align=center;verticalAlign=middle;whiteSpace=wrap;rounded=0;" vertex="1" parent="1">
          <mxGeometry x="665.35" y="1414" width="80" height="91" as="geometry" />
        </mxCell>
        <mxCell id="JRrbheT3QAUAnlSYt-7b-169" value="" style="rounded=0;whiteSpace=wrap;html=1;dashed=1;dashPattern=1 1;" vertex="1" parent="1">
          <mxGeometry x="468.82" y="1110" width="335.71" height="70" as="geometry" />
        </mxCell>
        <mxCell id="JRrbheT3QAUAnlSYt-7b-170" value="" style="aspect=fixed;sketch=0;html=1;dashed=0;whitespace=wrap;fillColor=#2875E2;strokeColor=#ffffff;points=[[0.005,0.63,0],[0.1,0.2,0],[0.9,0.2,0],[0.5,0,0],[0.995,0.63,0],[0.72,0.99,0],[0.5,1,0],[0.28,0.99,0]];shape=mxgraph.kubernetes.icon2;kubernetesLabel=1;prIcon=deploy" vertex="1" parent="1">
          <mxGeometry x="388.5" y="1214" width="50" height="48" as="geometry" />
        </mxCell>
        <mxCell id="JRrbheT3QAUAnlSYt-7b-171" value="" style="endArrow=classic;html=1;rounded=0;entryX=0.005;entryY=0.63;entryDx=0;entryDy=0;exitX=0.999;exitY=0.238;exitDx=0;exitDy=0;exitPerimeter=0;entryPerimeter=0;" edge="1" parent="1" source="JRrbheT3QAUAnlSYt-7b-139" target="JRrbheT3QAUAnlSYt-7b-170">
          <mxGeometry width="50" height="50" relative="1" as="geometry">
            <mxPoint x="364.5" y="1262" as="sourcePoint" />
            <mxPoint x="394.5" y="1262" as="targetPoint" />
          </mxGeometry>
        </mxCell>
        <mxCell id="JRrbheT3QAUAnlSYt-7b-172" value="" style="endArrow=classic;html=1;rounded=0;entryX=0;entryY=0.5;entryDx=0;entryDy=0;exitX=0.995;exitY=0.63;exitDx=0;exitDy=0;exitPerimeter=0;edgeStyle=orthogonalEdgeStyle;" edge="1" parent="1" source="JRrbheT3QAUAnlSYt-7b-170" target="JRrbheT3QAUAnlSYt-7b-169">
          <mxGeometry width="50" height="50" relative="1" as="geometry">
            <mxPoint x="371" y="1254" as="sourcePoint" />
            <mxPoint x="399" y="1254" as="targetPoint" />
          </mxGeometry>
        </mxCell>
        <mxCell id="JRrbheT3QAUAnlSYt-7b-173" value="metallb-native&lt;br&gt;v.0.13.12" style="text;html=1;strokeColor=none;fillColor=none;align=center;verticalAlign=middle;whiteSpace=wrap;rounded=0;fontStyle=1" vertex="1" parent="1">
          <mxGeometry x="468.82" y="1110" width="91.18" height="30" as="geometry" />
        </mxCell>
        <mxCell id="JRrbheT3QAUAnlSYt-7b-175" value="" style="aspect=fixed;sketch=0;html=1;dashed=0;whitespace=wrap;fillColor=#2875E2;strokeColor=#ffffff;points=[[0.005,0.63,0],[0.1,0.2,0],[0.9,0.2,0],[0.5,0,0],[0.995,0.63,0],[0.72,0.99,0],[0.5,1,0],[0.28,0.99,0]];shape=mxgraph.kubernetes.icon2;kubernetesLabel=1;prIcon=ing" vertex="1" parent="1">
          <mxGeometry x="607.3499999999999" y="1044" width="50" height="48" as="geometry" />
        </mxCell>
        <mxCell id="JRrbheT3QAUAnlSYt-7b-176" value="http://longhorn.fks.lab" style="text;html=1;strokeColor=none;fillColor=none;align=center;verticalAlign=middle;whiteSpace=wrap;rounded=0;" vertex="1" parent="1">
          <mxGeometry x="659.51" y="1053" width="120.49" height="30" as="geometry" />
        </mxCell>
        <mxCell id="JRrbheT3QAUAnlSYt-7b-177" value="IP POOL:&amp;nbsp;192.168.56.210-192.168.56.220" style="rounded=0;whiteSpace=wrap;html=1;dashed=1;dashPattern=1 1;" vertex="1" parent="1">
          <mxGeometry x="476.34" y="1143" width="323.98" height="30" as="geometry" />
        </mxCell>
        <mxCell id="JRrbheT3QAUAnlSYt-7b-178" value="" style="shape=image;verticalLabelPosition=bottom;labelBackgroundColor=default;verticalAlign=top;aspect=fixed;imageAspect=0;image=data:image/png,iVBORw0KGgoAAAANSUhEUgAABLAAAAJ2CAMAAAB4notuAAAAulBMVEX///8Aaav9/f4Iba0XdrIvhLoFa6zz9/vw9voMcK/7/P0bebQqgbnG3ewlfrc0h7zo8vfl7/bg7fVQmMWkyeESc7EOca9bnsn3+vxFksLc6/NLlcTA2upWm8d4r9J9stSVwNzV5vFgocplpMzQ4++Qvdo7jL+szuO41eez0uYgfLVAjsDs8/mozOJzrNFuqc/N4u6GuNeBtdU4ib3K3+2aw95pp86Lutm81+mfxt/Z6PKv0OT1+fvS5PAmR7UGAAAtW0lEQVR42uzY3U7aAAAF4BasFidNl7Y0NVg0ZSTOFYQQZht5/9fadmmyGH+Ri++7PA9wknMCAAAAAAAAAAAAAAAAAAAAAAAAAAAAAAAAAAAAAAAAAAAAAAAAAAAAAAAAAAAAAIDDGsTpZb8d33bdpq532V/VxVPVv3BVL9d5dzve9pdpPAgADmdw1k/z37Mmq6KkmIQvNymSqMqa2Y922p9pLuAzpfOHfNNUSTE6Dd/ndFQkVbPJH/ZpAPCRHn+Nu/rqLpmEH61I7q7qdps+BgDvFY/zdRmNws81jMp1Po4DgDcZfJ/nu0UyCg9llCx2+Tx1bgGv07ez7Fv4FX5ms7YPAF4ivu/KiyL8SkXUdPcGIvCs8/11GYXHISqv9+cBwP/ctKtkGB6TYbJqbwKAJ+LpcnESHqOTxXJqHf5h72571ASCOIDvKKiIiCiI4EMRT6+1go9o7/S+/9dqL03TNm2aBhbdXf6/d/oOEibM7MwAAD847mJNIlsvXIcBQOW1wygwSXxmEIWoaAFU2m4fiFW1+pd6sN8xAKimt+hokFyMY/TGAKBqelkwJBkNgyUGpgGqpHWN5YxW3w3jZ5wbAlRD+2nbIdl1trsRAwDF9bKA1BBkSA0BVFazzjK0MPwv82xhtQOAom4vY1JNkKGaBaCg+aFLKuoeMG0IoJaaFYs5KciD50+QGQIoo31VLxf83fiKsR0AJbRejqQ+G8UsAPn1IlEW8pVNv2CjA4DUnL3Ye2P4MvcIWQDS6h2qFK7erQ9oJgWQkrNXqUkUb1kACmtVKhn81fqwYQAgkWYk/3xzft2oyQBAErfEpnurG3XN/Kbb+an7/o9nGHW6t457YwAgg0+f6U687iqIF4d9liQTa/Lacxynxn4affvdm1vWJEmy/WERB6uuR3ey+sQAQHg7v0HlMkx95afLZyt0Nrc2+3/t28YJredl6q9006ByNaYnBgBC66UGlWeoD9LoeurfWFG3/ukapQPdoPLUtzgwBBDYLTOpHKY9TV2rNWJ8jVqWm05tk8qhLVF9BxDVlyPx19DsbTYJm6w8zXASnW2vQfzZKGUBCClcEG8N3b983LD7cD5efL1BvPmvDAAEM1pqxJVmb5N5i91Xa55sbd4XckFeCCCWyWfiqHGcJSF7lDCZHRvE0eoLAwBh9GZ14kb33fDGHusWur7O87wQM9EAovjUIU6M1WUiSgLVnFxWBnHSSRgACKAfEx/aIArFWo5eC6OpSXzEIQOAR3PXxIPpX8V8ovtX3yQezEysaAxQPY5PHGixK/JG9JYba8TBAB0OAI+UrKkwb+yKP8LiuGONCtNcBgAP0ltQYcflG5PDfHmkwmLxYzOAmj52qKD12RoxeYysc5cK6mJWB+ABmkV7rxqBBKngn6lhUPSyU1H6NgCq42lFhZhni8npdDapkOOOAcA9ZR4VoUd9Jq9+pFMRwwgNDgD3s4mpiPG1zeTWvo6piKl8yTCArCyb8vN8S4X3i9op9ii/zoQBwD1kQ8pNS5+YKp5mGuVmLBkA/I0w6aA5k7l09SdntqbcfGxwACjbzi7wSWQxpwWLcJZryqsj6zkpgCwSjXLSPqj5BffWpUs5DV8YAJSm/aFB+WiKJYO/6uWvZaUyNfoDyMUJKB8jVTdcvevPPMonUPvGADzOSadc6vGcqe51UUchC0AgiUe5jKvxSFoDFLIAhHGgXOxnFdpEv7J391tJhEEYwOdhlwVavowKCAVkFRELUpRK6f5vq1OdjmWEMyvIrPv8roDdP4Z5350PlbsGUhnk5g0RPZNSknInn+dJottWGsZIo52nl0S0e68vkEKU5O1K+WAeIYUxZycTbc9JFSmM89gvV+sihXoeXxXRbkxC2IXDrI9kSOfVcAq78E6IaBu+BrBrv7w2nJ0uaoyGQkRPdwm7ar4nl08asLsSInqiV0uYRf2X2TaoV+4HMEvYp0P0NKURzBpfhGoLmLW4noLoKco9WEUzVhX9sLoK2FlI9JxeL2BVnAj9cjiGVYMRiyit90VYzZle3SvNYFXlCjCidD5VYVRnNdHfzqswivPRKk60bbUQRm0ur3qoOYJRyIhFZHcdw+bdjdC/bkLYhPmuYSNKYxLDZnwttJWl/sGZEJHFXQU2S962/89qBpsKrwKJLM4CmLzlcXCTNyFzLKKdOavApPFy1jnvxvEYJhVGLKJd5VcJj4OPKS2ZYxEp7Dy/Ck6FHncTMMciUthtfjVlL47OYZ05FtGe49VFfgf1WR30GLGItqtWgUXCiSh6nTmrG4i2qRbDIPosZHFagUHAwWJE2+sfDHlosToP2QlNtCXfYhjU2Yxjd1JlxCLaw/yrC8+zGQpud4w1uzCYHgsRrXNQzP5+9fLkcpkk83mrOxq88RlRVwkMipxBSrROqQuDvscU5rZfj3Avbrs8tBYGEfQaed9ARLROoQcDj9XtzX4FD0Q+97kOYdBj5QjRQ50EepU34s+kijVijz/VNr2n7TGZJdqrAfTeepyJeRlgvZk49GUKvaUQ0Z9OoRc7vBnaVER+5PHzwPUUepdCRPc+BlArehx+lWCDo4L4c7uAnstzLdGe1N5lfNfnMTaJDsWh1w2oVdikQ/Tb7RRqFx7jlcyx0Ug8KregFnpMa4n24UMRaj2P90HSjLFR4LK4QUotqFVd/lEQPbtOC2qtlXg0xCMG4tKqBbVuR4hIZlBr+axhLBTxiLrTcvHSEYsbiCyGmY9Xcpfhz2xzqHH4GNEkyPp5UNVUNPZY2fBDYc6ZyURax2H2e9pONDHXZWXDT0t+KiTSKS8yn18pT1VtrymWFJbQKrr8Rkv0XEaZv78SaYZQeOd3Et6rFrR6bsMu0e59fgH5lfYh+uKWobrhSojyahJk/v5KZFWESuy0ssFWQRpx9Rfl1fsYSg2fw4Z/OofSjfiln/Ya3gpRHnW6UFo4bgsp6J/Cc6l4cwGlBS/eKZdmUJo6jldSC6DleuLBQYMV70T/9xFKU4fz+u4todYSz05iKH0Vorz5zt69bqUNBVEAnk0g3C9tBaRUS7XeoGoVXG2hvv9rFaOtqy5rJiR2nRn29wb8CMk5s2dm2YdOPdzI5Vqvj4TxZMOdRRk6feZHadtUj6EThzi//dEVEuaTDXfOBtDphluzJXoVFx5qayK1CjIoB5xsuLPDayyi56xiH0HFE2QykbAdQYlt0LRN3k6hcxl4K8gI97ycpfahUw77Oo6oUO/sN+Qk2jGyOZWwNYbQGQX+JiH6/yePbuB3PqUDJLwkG9Zqx1xVSPSXRR0qnTBXNzx6O0BG9VsJ3JsOVOptIdoGP4+97MK7xr9Z2lv/l0UfKpXQ7+OICvHRS6C62kJmzYDbuB/suPnvJcrvQ+wiZbm2gw0cSfCuoBN2pJeoCLUuVN4FX4YqjbCBVsgzGx4ModIKvCZC9N+SPpXwH4Y2NmJgAl5tzsA70Z3vETT6wVfTns6jdzUW/VMTGnHosTKifGoVN58hyz42EluYdXAWQ6PTEyLHrqHyUcL35Kc4W/n+jZVConYdGuOGBK86xYaaIQ9Q/a00hEYU9LAyolx2Z9CYWjho3CDhNNkg8qUFja6BoifRa/YQRsEn3NcaM2ysFXhL973FgD2FtNXel/18gDwbf/U1TerGw9xnoo0NfQw0SAyRw8jAHd3agZOEL9HrbRydht9st7YcIIfoq1igvMbaESJ/ahU3F1gi+8jlUEzQFXU73KxKDl27SWCJ9DrIpWwh2bB25aRNnSir9wMozGxUyW+Q0zcxoTSGQmQhu0+URWnPSwvhWmOOnFpGpt8tm17aI4myOHWwhPCP0xgJ98kGkXMvrZ9EGezOPVXIh8jt2MhP1WUbKrx3J1cmTsYHJ5YRcous7HDodRzdyRGp9JpQOBcbLpDYimSDyFnsqOxJVFhsaWjklPRmigIMzDzih25m5hApc+GODoQyQSGuxYgvHaSrM9pAbhx4OhCWuihEy8xFtepQuCdEPiw8VQh1LZGe/qGVVVHOdycfGmOkK4e+ll6bgNWbiRVvyn5GUBAVkRmdiBG3EQoS2xkv/APpYitZWKIXjZBuZub1fIHCDMWMMdJ1rRzqiV6w8hSjVCTK9AZWjsEinyNXl3JE//JzjnSXYsUREluWbNANB5rbGLVB9IITpJuGv5f+wW4FBeoYmdmwVm0h3Q8hsq3RdTVkdwU9X0/4ylW0jOh5574K4mPouao1iLzzMx6IKMdYmXghVnyto1hmig0it3WuVSXvzl3duMslsnDW0LLPQiE515g5yriL9MrQc7eGtNfhJxb5dhq7mv12hSwcbQm6N+EnFrlWGrmqLFUrKFzTzs+XatdTgyTRU21XkQY5QTae9m4kVjGHNpBfpT1fhf0RsvIWD59x5Rf59Wng6oW8iPAabOzmv9eOkSayE1IhyjrYYGzoA+sQj7Y02SB7SHUgRL/Yu9PtJIIoCMC3WEZ20AiGsBiEEAWDWRQSxfd/Lf94jno00yQyA3W7vjdICDnTPXXrMtqh9i0hCk6+qiMTVaJkg82qCOnyxFREfrPx9XSxQUZWRmTtK6kh8mu+31ENltlpAxmpd4zHpIeQFk33hsiTQgAjojdKr/GnSJMNNnXVQSHyhBAA0QulQh/P5GyeZVJVV7I41Cy6usFqIjsJUbZjl1usIs92DZGfVq5usOwdns3X0dgmPSUbxJ1OFyEnxuOshAwVvxqRdwjpvjQRKueuyutsg0ytjUgzQciNiTCpzT0VI9tpC3+LNdlQGPl6jSBiw8TTFKE94D+4Wny924ebMA1IitgaIW3jUVsiY2Wix02zvq7dxZVK3VMPlg2RuW9G5FLX7uLKF09Fo2ZvkLmBEdm2EXJhIixqA1cTsmc9ZK46MyIXrooZJXaTIgJ6TK/F3uJRkXY2fCwhILk2ERIbV8GjSgs5KDH9C7cxQsYmwqHWRkCVKTT6gD1wte5slxXYDZ0JhUQ4p7MkGp4rzJGLxgsjMkBA8sFEKIxdNSbdJ3iUkg2P+2QiDMJ3PgtlGv6hb0RetBBQV/GoULh3dSH7tYqcVIn6DM1uEXJpIgSmrlbXjZEu1s6G7z1P/YwSr/BhYWk8Pi6Qmy5VsmGAgAXVjyOx+uBq6cID9sdXjdSlzoTiwScElJgGY++QoxbTy4jOQpUNwu+05env+D1ydWVE1gioUyXLJE5NhDAlCk8QEm+yYZh46miUSK0Q0CKa2Zj0kKuEaWTJygiYmshx27Y9hbDGyNk7opklu0FAmelOTqJ0XXT0EPGxjpx1XxmPmafPWuJ0joA20U3sOXYRbbKhtvT000iU+o5OhKd3yF2DaUHWLQLmJnLMXnYdrU99j/1ztZxjkiBd78xEjtiVp31WJ9g/V2XotbmnoQaJ0BoBt0ZjVsX+RbbB/42JHK9KGemKRF/HFTLh6TsebEpuqRRLjtjM0Z1yp4SD6BLd+4Tb+5mahCQ65456cy+QEUenZhsr2CDEBn6my7ZtHMhiazSarqYjJTIvFkhX5+l0+4CseFrRUWmo2V1oDYtI94ZnVG6Ag5nzJBsKU237ElobP7Gc6wQHk9wbjQcEvDWR41QYIV1vYizWeKJIkw1nPaTr8zwuSmQqdaQrG4uXJRxQlSjZsHS1WUNi0kTAylhskCVPixtvEDA0kaN04SbUUGsgW34C4kNdYgmpEdLVadblXOI5okw2dBZKYgmlbRnpBiyhhsIAB3bH8quywomfp0WJynXPy+HgMw6tyJNsuHE07y4xuXJzhTXFwY1oHrGGiZvjrfxg717SkwqiIAB3Xd7yiAFCxEhAJASDiXkoaND9b8sBDhwdhlZ1178CzUduuN116hTlGrELlR0qwzr+u9prEtGqe9mXCaqmuZy+7kFAJwIyQuxM5suilaR1kckR1rsBCNzJBC73iE186m6E+rmsqB+Dgszc5cbRURO0QKwuMkhYTUHhTGUI730XsX0yo7PL5BewXwMHlUvVao3YMpmxqaaZfGwJMg1HI5XD6l0+/V5WjLcDxG6ShOEEJGqrpOEnYnWh8gkrxaqWx769OWioJBtWXp1jcg6ITTSu6ds90FDpQ293nXU3NU+IvWhsJCTJNEi9RVdX+dR7WSkuEdslBdUWRM5aScIDYlfJjEwDsUVS8KEJJiJZ2zFig2TGpV3P4ndvCSqjJOHUereLYTKj0q/lcLX9nibTcNTRSDacdxGqeTjHyIwR60mcuV+DzNckIY/zACvIUw4vN18oehoEl2TNfE1oWj7l8JH9CToag8P7fDbDWhHeTBEbJ37VGnQaEsmGW8TWv5IZkS+9DAZzfoDQIQlYZdNGaGU4db02UbjYvgQhidDlqWvCpkxDvZVhhVhDYAHFK1mm4aj5mPi1Xlw6akoOGexQJeppkFs6M/P4synZ608StrugVFd4m37IZAGJFWKH2FOitwAphWTDTSZ1s1aIkXyq4R1hpkFnSOCA2DaZEWnID5NtQIv/aZ++dRDqCZxhWjlaA4Qu+EefR6AlcGPxto7QnUh5qpVh2EWoS/9W85Ey03DUFOhEv8tjKaWV4XGCUCOxI800yCQbtvJnAlaQjXpXw1vSTINMsmGJ2G0yozFWr3W6ATX+VMgDYt+TGY0FYs+J27szUBvQdzbcyD9yrSBz8cmMzyBHn2w4qH/HtpLsEPuRuBFnGo62bxK3D4gt2f8DVpDWSLsNa1UDuSb7LdupH+GVQF2HlaJ9hVDnd6L2FfTYh/Fe6witXeFnNM4bCHW5r+XPqTMNGg2I5wOEBuT/fivJ8NSnlfvPK21Pg1BBS7uBUN2do0bjYwehNfVkzpsGBPS4D4GqLWIaK2GtCCvEttTTu7eQwB0NqUaIKTQ9WyH6ypM5FX2m4WhN/dRPl4jdJzMS98p7NB/pMw1HTe4w29IPLFNxr9zovoOIS+qvWM+ILZIZCeVRwmEdIjrULYhz7VtOK8lc+IFF3tPwr+tETPmPlhXmWbdb5FcPMgbMyYZb5aetlWWu2952DyHMyYax8sWLlUX3SruaQsgL8bH7BrFZMiMxQ+xzYtUXyTT8tUm0Vk0/sEzEDKEmb8pZJtNAn8B9bPqV8A97d7aVRhgEAbiLzWGJLLKIgEjcEogKuOH2/q+VYy4czNLoyQVVZ/p7BA6nGOavvzuIkA2sZgdSOrzbsjYF1rWFQEI2sBYQw3vW9phX3/QWMqMuugg0kZjTsK5Ku41ipxyBFUQU4cqzVrTbkEN7wyUCK8gowlVmfSyYQc4Z6zKHCKwgQzSwhiXIKbE2GyKwggzRwDqGoIFxisAKMjQDq9WFoC7prOEIrCBDM7CWkHRplCKwggzJwNoRmtOwrsq5gigCK8iQDCzBTgNzsyECK8hQDKzKGUTVKZemRWAFGYqB9QWqSpTDLyKwggzFwNo5mkIU5cyGCKwgQzGwzJpXkr0GoMTYbIjACjI2BdYP43QjskNVYW1aBFaQUVQdL5Nry81reFVtGp0IrCBjphpYZslSbIbfL6dGJ4nACip6uoFl9tiDnBrfNop5KQIriJCbOHqw+GGplV4li29x2qbA6lsIJDYF1hcjM0atbanKrVrFYY/uESuWUAQZI7HngWQKoL8eo81LrYoD39Tpm1jzFVQciy1SfcCr/HHLUvMBlBwbmfNYpBpULLWesN6uERZOdyx1rlRxKLA1Gy7UEjZk1xi+e6MyxJv6k6WSRQEyyD7TjYE1thBIjOFbGpUR1oxOLDX5ChW1Z6NyH4EVVDxIfVlfuljXHTcs9U1mkw7Zi8Gl1o9WyLIL+L4akzF+U7u1VOVBpOJAVmw6hO/BQiDxBKEOTlLFH/pDSzUOJSoOea5mQ0/rgTBk2Ry+AVPN8Qh/UXpXcTgZQQDXuVsPPtZ9iiGDTuCbEQXW/jX+qnCaiFUcykzNhlwfPsYZXiGjHgtwFROj8Q3/Uvye06o4MJ1lVGaCQwdDRrV24dol2ky1593QO7HUI/1i6BrR70CjBtf0wEIg0biGq/NoLOZlOLqHDUut2CsORC+ym1O4ai0LgUQygKv8Yiwu8Z5bcci1d8FsZjQmXbhmrGOyQwbt9+CjmS/TqOI96YpDfmgs5nm49jgXkYRsuoKPZpPeETbLfz2w1AtzxYGnkbuC747ooDhk3kJku/pzHR9RWDxb6qkOVh2aV9lt+C4tBBpHIgfw5/ig4vl6xeGetuLA8sHaqdhwiZBp5xql7NwePmzvxlIHxyVQ2mVpNlzB17YQaKw0NhDMS/i48mHTUqs+KLHcKR6ovMUMweykA1fNKNzhU3Zvc/Ym90BZcZhVjEIdrjLNOXEIZs0qXAWKfy6tAj5pNrRUMmbcucrRbNjf9AWgOR0IwWy/Bld3YgRO8WmldxWHyYjvVRbH6J6Djsi7thBencFVYhgu4qSqW3FILPWdruLAce1pmIerbiEQ6cF3a9vXhsNRvMjZm537KrhQzB6+gG9gIRC55O8LVfpwfLzi0CKb4jBluPSygO/KQiByxH+H5AYeX/6wZakvXBUHhmsEd9EbDUq+wTfbt227w/+Y3lZYpzicbf+zrQy0VumGrJuAfYRfq4P/M1tZqsFUcVjZtiVF+LgWZoTM21RxKm39LGsJ16enOEx6NBWHkW1b6yd797qUOBBEAbhPAoGEmwGC4SIuchEUURdWEPX9X2urtmqXtdRBZS4dqr8n8JdkZk6fbkEpkfo+wUqxxjzfWKzicLn7Au1Ml+AhdP5rsIJaWer7BCteg/nNcBOvaYk4jJlEHPrkWBNqbSYDREJ8clr/gdy6hibdVxGHWx8MlObkVj8bbR1C/LXmXT/e86GLv6jTTq8LBn6RW40shFuF2JkFrIfJLqBwYMShDOdqEbmUVqUNS2TLoAWlZEQOdUJoNdnwanFwPKvZyUEplFSDYOa5BLUncugcmgWnW9rZXgT4uuNJNsyglpuTELwsGV9jFKvQLvlZpJ3pBE75A3LoB6SrQWTMkPE04SMU9EQc0h8lGMV5K81DJjq7hPhCO14+JWcmeO0IIw5XJ+RMWoPaPQnBzAZqfkyubAIY4j+8anHo4ouOI9lw0uJ8fynEewYh270ppzDnapzSTjMPV2oeuVKBmj8iIZgp5rneug9aMGkypZ3CzwSmsP2MWbOv6hDijQbXltw+DLt44dDi0PDIkTOotT0SgpsF1MpFcmJegoKJiMM1XAhH5MZzXvqRRfbcQC28Iyd+wYLy64jDFUxg+n/hJeH7HiDER7YBy4GydAIr2hXaiV1EHHIn5MQT9rgjIdhJSyy/AKawJLit086qC+vG5MQ51HLuO+eFeMNrsHx478Ka0rhA/3g3eVhWK5ALE66vLUIc8rrt18m+UQsW1S7/LyS9T6AZx6jbSch/J6UQb83A8BKrD6smMf2no7vFgWN+4BKy4ktk0TbHryZ5noNFpR/P9NrmGhb5FbJvAbWW5NwFS9GS38bPMewJH2J6I/11hb2ynGyIrhlPvQtxQMNMa0CWFWqwprGid8ULH7YkMdnWSaRbRmTTI7tLrBlsKd/Qh+660IZdkcsMzBe8CfGBDriV+HVhR3I/JwXvKQ878kWy7FZioyKjCnmoVVOyauTDiosB7VFY56CS2c4GLw+1qyIJwZJ3wewV6xY2TDb0CdthAB2YpTRHIdTOpKpBcPWD1xVLnIOCgSWFaps2zAsqZNWY6byQEPvdtaDW9ciiNYwLFzF9WvRYxeFYbYX3zqDm90gIprwy1MI62fNchmmNEX1J3A9hWFIni+IEatUCCcHVkFOw4RKG5Z/oy0YNvCeryYYZJIUlsqvJaEOx14VRybpI3/FUg1HlZ7JnyHiZjxD7dEI+j9yrACYNt6RgMuLA6Cu2UIWa/0JCsJW2+YzuD2FQe0oHqA99vJHFzoZpwLOiS4jP6YNLY0MnB2OqjxEdpteGORWyZcFwGluIz5uCy6vRPUxpnc/pYN4BEQc2E1BRns8HtRDf8JzDHlOyIq3CkLMX0iLut2BG0iE7KtgjmZMQnF0wORM2YcbyibQZneGbmCzZXmCPBgnBWhN7XJ2QBVEbeu3WTOg0q+E7mJy7i2UJNYiM2yYs+gQqPvQLHjqkWbouwYBHsmGDPcIBCcGa12Yx7HYK/do9MqD+4EO764gsuAW/TmwhvmbNYUFxJ4Fu5aZHZlTa0C3okXmFEpe7NCG+bcThvHIOzZLzIn2AZcThlMy7YRQIE+KbvCWcd8wUq9AqON2SUSfnLWiVKP5gW80yyEckBHf3cL48pwmtllMybnAGrfpkWqcFWfkssm8Vui5AiSb4g2eU4SPTJTSqzsmwMaS7TxyBaIk9yikZtQmgTXAbkyXpuJShZINXg2xQFcfgJ/aZ0Xs4Zhq6K7Io1hhxWEZkVC9wfyoVQoMXx9O5HR+alC/JslUXmgRTMmoob4TiOERLt73jfeiR+83enS0kDgRRAK2bkEAAARd2QZYB2UQQUUH8/9+al1mcBTtLd5Lu1PkAnwTSXTd1twWK36GsRbJB3EjknIgxHWwTfTu3VoEM9uhIiajd1SGDfSSFBuAZITPEsZHkfewBMizfKDHDZuqTDa0dBOxnYkwPbSS32M3aIbrFoEXBpSzioHIvxgwiO258Zrq4SbBRfSanHTVhrUEJke1JmR5EBsSYJsQ3su6G1LCuZbSjpsDlo4eIqhYpcvTS1efKWCSjxBrVhzaicVKzhvyii4jmpMgaIj0+ETJ9zCCSuyQl1ogk95qmXqobBwLJfGtclsDtE8wgxXJCyYbVAhHYLx1KldVTHRHYQ1JiApEFv5bDdLKFSKVACkzSt1I0mmEvfcmGYplDWMwsH41EZlitKkKr7NP5VBAl4lBakQIHiHipmFswFmlYp77FfI6wvH6NUqo4WCCsAQmo2d7T5tV9TC/vELoh2awuQuql+pEgfMSh2iLp5hB6IMa0kncgMrVIso2HUKpzSrlNNzXJBmsJkUWaRq2MSWnPgTsnydYIIzfR4QDz4CCMLsk2d/nKnZnnmIu9Pe8yh+C8F00y2YVtHcF5G5LL6iL5pf2MSdeM/byyRXBtjdbMDUcIbk1yXUCoR4xp5yLuguK8E6IdVYfT4G+zKQRU99YWuxCaEWPaKS5jvsV6R0De3Yo009ovENCEZJpDaJfOPBtjX7uJ+RGrjWCaWl611NYeAqmeSB5rCaE9MaahVjnWLNbGRhBTbQ8u364RyHu8D1ilAjGmo0msP//jYCtF9bq8+tO9k1CyobWE0BMxpqWrUoznh6s6fPMeE18pGjXikINv9nOcp/ycJikRxsIEOSuF+DMN1xpFGc4ZjuHbI1F8c9gXYkxTxwaEtnIvzMScBzOWYb4t4VPuMr4zvp3qlzIZ+9ILhHIdkuEB/tSfjLkTLh4q8OeVpKiVINQkxrS1sWM6Q1ht+DI6kkFqfQ9+OHlZJ3xuI2Qms5oQ8p4lxerF2tpGGSJGHO5jWsqIrhnHbZZV39x4/smbEKsMTPw0vVcR0/dID2JvxJjOmogjPdqpQ6SxTu1KUfURB/dZRmaUH7CY8Z49CDkF9ZmG7oaM1RlDZBxLpMHlByymuybUh6PzFXytem/2T//bUvksdgKxLjGmuY0LIW+otMYltzV+ZW/xsFCbbOjk+AaLZUITYtcWRdCa4ivjlLWjqrHqN/CF8kn5uBddnd/PZEyQxZJWs3Lr4rxlCttR1fjoucqKbObgGyyWEb4iBzU18/bygTJkvlNUFVhwwCF3lhHDutoXdI8ezqjrt1I0mvxrCefcUnh9iNkGz2FZpjyqPU/c4YzeB2XO1VhBsuHCg9jI7EEsyw5fE6bdicIpLPBf1XfKpNsl/qtxFWGoIdbIxGiDZcIWCsNYhzPtqMZsZQiqeFORW2/6Ch/WxJghVhWI2RcURrGKf7m6tKOqUbtrSNyV+NGAWMnQF59YJg3gwy5PIcxcvdtRBWRGHG5C17WJTYgxYxR3qg6FVu8/7ajEaFbF35bK3smBcyLGzDGDD94FBTa0/1kpmrEowzmnSQl/sm9VHQhxT4yZpAcfnFXkLZgjLdtR1bh6tPGHEQWWX8KHNkcamFmGHnxYR1wzPp0T++S2jc/sTpiQm5jHmVFmmj58cOcUzB6flCZ8k/JPxKGMT/oU0JsNcLUXy6BCBT4sLikIy8Evtu7tqGoUPkccKqvAeRSONLBseoAfPSvkEoEu97WcMWy6+OlAQVgj+LEnxoxT7MKPAflnXf9uRyV21myKH6YWBXCAH8sWMWaeDztctkH8F3NPxq8UjaY1KIVYCjpswAc3MwvHWMZ8Z+9Ok9MGgjAMzwcIgQWInXjFLF6AgMvGG3F8/2ul/COLq5ykBwRyofc5ApRmenp6uvuyCOqebSCKo72ajurDv8Sh58zCS/GIEBlWCmQxdEb1jiTNaHRpcnIsSd2Bs1rIokbGHftqUkw0jfUkqXZOBsUo1674VDa0JWrckW0jWXSrziKsqLyglMFD6a6j6KszGXdkcUqNO/ZXYyqLSt1WJ9EaO3gZnBoHfpViWUS07cM+ayuxfTu3oCvDGl4WpeQqsHTugD2Wa0lJdZohebWWg5ypp4zJIf8B9luzIIsiudw0Xedl0aE1BvbdSiYd0lPpOYok2owCHofCmPqetJQuZXLIaHrsv2ZBJi0+h5T0xIEQ+GkumzOHNNxJNGkAfhmKO/PPa1WUScsBmVCvyaR87bBrJ12ZRLwxQFZMijIpcFW4a4OpeEMIvHcmmwrb+G41YtncOCAzvs9kM6Mz3y6Fx7KJGf6ILBl3ZHNKccMODWXTZa4XsmUloxtWrJ05kyhxBzZoByDdOuzGhYx6bCLImlIgyrE+lbaMaiSwkD33HYnODZ/HVVk2XcbkIIseZJR/cdi2apkEFvAvjzIqVB22qxrJaOiATAqXMopYsbZrHMloWXJANg0KMooo/NmmZiDRWBH4j4msKoxn2Z6jQFZzB2TXrazipsN2NGNZ9R2QYbkeK1bamrHEQykg2cS7Ak6FBts8Dwb02UfWfZsSY3lKK76KXh2Qdc95YiwfqcVXxYkDsBIxVlqascSbTsBHX2YVyoASj6/oMQps6apQ0b1DUl4DmbW+OABvwpnEKx2jpN8PMogb8NSsyCwi97v79WrKdQfw231BZnn6YyXhqiuzDmEt8KfnsszK3Fdtbu7zgxPUAu/Ni7J7ctjMhTysHIANPqFFzmEDZ2J7ADbSl4ceE1bXF44kCrCAjRw8ysMh9+zrqrfkYUQwC3wkdyoPAUXv6xnE8nBMKAt8LGzJQ/Ts4K9ak4cW6xXwN+GxPHQfHHy1u5LEyAkgAY1YPvp0wPSTuy1KdMcAEtJYykePCMBHOJSPZcMBSDDGigcOVkeX8lFjvQISjrEKPBuxup7qDbMggfRirDyF2DbnZfmYsl7hB3t3oqQmEIQBeH4BT7wFPFFx8VZq427Uzfr+r5VyU6lKKifDoAj/9wZQNVM9Pd09pHpu75WzFfQvRQ8AOCmRSNx7x6pzcf3L0wGhrPlLieLasayOoL/p6GD+iiguzQPCCViR/WddF4yviGLUrCOcOWOCP7lsAObbiSTEF2NZbNT5vbOFcA4c4E4U+44FjxNnflX8DID17URxaw0QkrEU9LNhHQDYP0gUu0IbIWljPvf5o+6nEkIaMEwlklMYAcy9y3vq4Yrzr4huovwZYdlHBlnflCcWwppxvyKSl3MR2oZB1tW0h9ACzm8niuSI0ErPDLK6voXQngURRdPRENpmKLLtZYPQNBayEUW30hGa5mZ5gkPhUwmh6V8EEUVXNRGemd31t6ojvHVVEJEK/QMkOG8ii/oeJBhsxyFSpTiCBP2YvScqCr4OCW2WixKpU3Yho561c+HqABkBn0sjUmqiQYZzEdkx9SAj7wsiUmulQ4blZmX4QMPVAfB6kCgRLnVIWftZ6DcpTNaQYrIxgOi7+6feARidtJe+d3cG5IyYbieKR+4TJPUWIs1WPUhymW4nis3OgqReert1hu08vuNrQ0QJcjlAVvsk0ujUhqw601dE8SrOICvfTl+U9XN0xReziZLGL0Ha5kuacjblLwNI01h9RXQLQwPyNp13kQ7d3Qbyauk8IBMlz9ZDBOYxDaWkTd/AFasZiBJvYiGCivvoDTtvbgURlHgcJLql6gFR2M7ycWtJuyfHQhRG+i4fiJKtGCCauf+Yp6KGP0c0M94OEt3cYo1o9ODxIo1hoCOaSrqL/omSquUgqsPxkSZtNo8HRNV+pA8mSpVXHVGVRp3HmEta7DglRKVPBBHdy3SA6GreMul7VnHo1RBd70kQ0R1NdChgBKfklsCXT4EBBexjcr+RKCOmA6iQr7mnJF4bNk5uLQ8Vei+CiO4t96pDDXPW2eZEcuS2nZkJNawJwyuiROiPoIo98KvJWNnlqj+woUp7KogoIXY1KKMZ3qL1Lu7pvbXwDA3K1M6CiJJju89DIW3uLt7Efbzt9nMNKgVJTM4RZVq1B7X0erC7bMUtbS+7oK5Drc3j1fMTpV/udQ3V8sZovGrkRPxyjdV4ZOShWoXJdqJkagQaYmCbjr962oq4bJ9WvmPaiIH2OQ2zv4hS6qWNmNhmb+Yv+8WyUKdc7C/9Wc+0EZNBVRBRgi3qiFNl7o1fVy+troii23pZvY69eQVxMnaCiJKteKwgbnbFPIz2z7vltN/cFrrif3QLjWZ/utw970cHs2IjbpVnjr0iegDNvY1byevmfOM47ng8OZ87ww/9ZqvVak6HV6fO+TwZj/eOs5nX9DxupbRvCSJ6CBfPxj1oHyz9ytI+4B40j2MZvrJ3dz1qAmEYhpllrMRFbQA/CFWWBQE/qiO7KFH//++qPWjSNGm63bguDPd1yvnk5eVhHqBBXl3RXhoWxgKaqwLRTgGNg0AD/axxb511bgBopKptL4YBDRNAg30LTNEWZsDuCmi46rkdR5Y5YXcFaCA5SKE7GRNkADRx2j8KnT2GJwOANrpPqdBV+sRPOIBmpvlsLPQznuVTA4B+ovlA6GWwpVwC0NbXzNdnzBr7GZe1A3pTmoxZg7kyAGjPytym5xykm1kGgHY4lWlz46RmWrK5AlrlIZk3M+iQzpM61ekDuI/Lazho1pz1ZTDvXwwA7dSrihfRFC9FTscg0G5dVaQjUXejtFBdAwCMqJzU+buhnLBlB/AbK9+ldcyUjtNdToIBwJ96iRfXagtvrp69hLUVgL/oqcXEFnVgTxaKwwrAP2wSL+5I8XlkJ/YSrowB8FZOVri2uD/bLTJKmwH8rwfrlIW+LcV9SNsPs5NFjB3Au12i8yJeS1N8HFOu4/IckWEHcAsPXWd5PATDlSluyVwNg8Ni6XQZqwDc2sVRlVfEvi1Hpng/cyRtPy68SjlMVQA+2sXpn8v9LnbXw85IireQo87Qd+Pdvjz3OacAfIKptXGcSKml9907hlfFdvbLtgivjtcnuVKR42wsclUAAAAAAAAAAAAAAAAAAAAAAAAAAAAAAAAAAAAAAAAAAAAAgB/twSEBAAAAgKD/r31hAgAAAAAAAAAAAAAAAAAAAAAAAAAAAAAAYBd5k9SCS0OgtAAAAABJRU5ErkJggg==;imageBorder=none;" vertex="1" parent="1">
          <mxGeometry x="744.6700000000001" y="1113" width="57.14" height="30" as="geometry" />
        </mxCell>
        <mxCell id="JRrbheT3QAUAnlSYt-7b-179" value="" style="endArrow=classic;html=1;rounded=0;entryX=0.5;entryY=0;entryDx=0;entryDy=0;entryPerimeter=0;" edge="1" parent="1" target="JRrbheT3QAUAnlSYt-7b-175">
          <mxGeometry width="50" height="50" relative="1" as="geometry">
            <mxPoint x="632" y="1000" as="sourcePoint" />
            <mxPoint x="680" y="910" as="targetPoint" />
          </mxGeometry>
        </mxCell>
        <mxCell id="JRrbheT3QAUAnlSYt-7b-180" value="" style="endArrow=classic;html=1;rounded=0;entryX=0.489;entryY=0.002;entryDx=0;entryDy=0;entryPerimeter=0;exitX=0.5;exitY=1;exitDx=0;exitDy=0;exitPerimeter=0;" edge="1" parent="1" source="JRrbheT3QAUAnlSYt-7b-175" target="JRrbheT3QAUAnlSYt-7b-169">
          <mxGeometry width="50" height="50" relative="1" as="geometry">
            <mxPoint x="642" y="1010" as="sourcePoint" />
            <mxPoint x="642" y="1050" as="targetPoint" />
          </mxGeometry>
        </mxCell>
        <mxCell id="JRrbheT3QAUAnlSYt-7b-181" value="" style="aspect=fixed;sketch=0;html=1;dashed=0;whitespace=wrap;fillColor=#2875E2;strokeColor=#ffffff;points=[[0.005,0.63,0],[0.1,0.2,0],[0.9,0.2,0],[0.5,0,0],[0.995,0.63,0],[0.72,0.99,0],[0.5,1,0],[0.28,0.99,0]];shape=mxgraph.kubernetes.icon2;prIcon=svc" vertex="1" parent="1">
          <mxGeometry x="610.71" y="1207" width="50" height="48" as="geometry" />
        </mxCell>
        <mxCell id="JRrbheT3QAUAnlSYt-7b-182" value="service longhorn-frontend&lt;br&gt;type LoadBalancer" style="text;html=1;strokeColor=none;fillColor=none;align=center;verticalAlign=middle;whiteSpace=wrap;rounded=0;" vertex="1" parent="1">
          <mxGeometry x="660" y="1216" width="140" height="30" as="geometry" />
        </mxCell>
        <mxCell id="JRrbheT3QAUAnlSYt-7b-183" value="" style="endArrow=classic;html=1;rounded=0;entryX=0.5;entryY=0;entryDx=0;entryDy=0;entryPerimeter=0;exitX=0.498;exitY=1.014;exitDx=0;exitDy=0;exitPerimeter=0;" edge="1" parent="1" source="JRrbheT3QAUAnlSYt-7b-169" target="JRrbheT3QAUAnlSYt-7b-181">
          <mxGeometry width="50" height="50" relative="1" as="geometry">
            <mxPoint x="578.25" y="1195" as="sourcePoint" />
            <mxPoint x="578.25" y="1239" as="targetPoint" />
          </mxGeometry>
        </mxCell>
        <mxCell id="JRrbheT3QAUAnlSYt-7b-184" value="" style="endArrow=classic;html=1;rounded=0;entryX=0.5;entryY=0;entryDx=0;entryDy=0;exitX=0.5;exitY=1;exitDx=0;exitDy=0;exitPerimeter=0;" edge="1" parent="1" source="JRrbheT3QAUAnlSYt-7b-181" target="JRrbheT3QAUAnlSYt-7b-147">
          <mxGeometry width="50" height="50" relative="1" as="geometry">
            <mxPoint x="633.5" y="1255.5" as="sourcePoint" />
            <mxPoint x="633.5" y="1274.5" as="targetPoint" />
          </mxGeometry>
        </mxCell>
        <mxCell id="JRrbheT3QAUAnlSYt-7b-185" value="" style="image;points=[];aspect=fixed;html=1;align=center;shadow=0;dashed=0;image=img/lib/allied_telesis/computer_and_terminals/Personal_Computer.svg;" vertex="1" parent="1">
          <mxGeometry x="609" y="940" width="45.6" height="61.800000000000004" as="geometry" />
        </mxCell>
      </root>
    </mxGraphModel>
  </diagram>
</mxfile>
